<svg xmlns="http://www.w3.org/2000/svg" xmlns:xlink="http://www.w3.org/1999/xlink" xmlns:lucid="lucid" width="2120" height="1580"><g transform="translate(-220 -60)" lucid:page-tab-id="0_0"><path d="M0 0h3677.73v2581.67H0z" fill="#fff"/><path d="M720 222.5v4m0 8v8m0 8v8m0 8.02v8m0 8v8m0 8v8m0 8v8.02m0 8v8m0 8v8m0 8v8m0 8.02v8m0 8v8m0 8v8m0 8v8.02m0 8v8m0 8v8m0 8v8m0 8.02v8m0 8v8m0 8v8m0 8v8.02m0 8v8m0 8v8m0 8v8.02m0 8v8m0 8v8m0 8v8m0 8.02v8m0 8v8m0 8v8m0 8v8.02m0 8v8m0 8v8m0 8v8m0 8.02v8m0 8v8m0 8v8m0 8v8.02m0 8v8m0 8v8m0 8v8m0 8.02v8m0 8v8m0 8v8m0 8v8.02m0 8v8m0 8v8m0 8v8m0 8.02v8m0 8v8m0 8v8m0 8.02v8m0 8v8m0 8v8m0 8v8.02m0 8v8m0 8v8m0 8v8m0 8.02v8m0 8v8m0 8v8m0 8v8.02m0 8v8m0 8v8m0 8v8m0 8.02v8m0 8v8m0 8v8m0 8v8.02m0 8v8m0 8v8m0 8v8m0 8.02v8m0 8v8m0 8v8m0 8v8.02m0 8v8m0 8v8m0 8v8m0 8.02v8m0 8v8m0 8v8m0 8.02v8m0 8v8m0 8v8m0 8v8.02m0 8v4" stroke="#5e5e5e" stroke-width="2" fill="none"/><path d="M721 222.53h-2v-1.03h2z" fill="#5e5e5e"/><path d="M720 1598.97v1.03" stroke="#5e5e5e" stroke-width="2" fill="none"/><path d="M700 246c0-3.3 2.7-6 6-6h28c3.3 0 6 2.7 6 6v528c0 3.3-2.7 6-6 6h-28c-3.3 0-6-2.7-6-6zM299.75 99.75c0 10.9-8.84 19.75-19.75 19.75-10.9 0-19.75-8.84-19.75-19.75C260.25 88.85 269.1 80 280 80c10.9 0 19.75 8.84 19.75 19.75z" stroke="#5e5e5e" stroke-width="3" fill="#fff"/><path d="M280 119.5v49.3c0 3.3 1.44 8.27 3.2 11.07L320 238m-40-63.2L240 238m0-98.75h80" stroke="#5e5e5e" stroke-width="3" fill="none"/><path d="M240 86c0-3.3 2.7-6 6-6h68c3.3 0 6 2.7 6 6v168c0 3.3-2.7 6-6 6h-68c-3.3 0-6-2.7-6-6z" fill="none"/><use xlink:href="#a" transform="matrix(1,0,0,1,160,238) translate(94.10493827160494 17.77777777777778)"/><path d="M640 106c0-3.3 2.7-6 6-6h148c3.3 0 6 2.7 6 6v108c0 3.3-2.7 6-6 6H646c-3.3 0-6-2.7-6-6z" stroke="#5e5e5e" stroke-width="3" fill="#fff"/><use xlink:href="#b" transform="matrix(1,0,0,1,640,100) translate(35.57999999999999 63.15)"/><use xlink:href="#c" transform="matrix(1,0,0,1,640,100) translate(79.47999999999999 63.15)"/><path d="M1140 106c0-3.3 2.7-6 6-6h148c3.3 0 6 2.7 6 6v108c0 3.3-2.7 6-6 6h-148c-3.3 0-6-2.7-6-6z" stroke="#5e5e5e" stroke-width="3" fill="#fff"/><use xlink:href="#d" transform="matrix(1,0,0,1,1140,100) translate(5.579999999999993 63.15)"/><use xlink:href="#e" transform="matrix(1,0,0,1,1140,100) translate(103.43 63.15)"/><path d="M1620 106c0-3.3 2.7-6 6-6h148c3.3 0 6 2.7 6 6v108c0 3.3-2.7 6-6 6h-148c-3.3 0-6-2.7-6-6z" stroke="#5e5e5e" stroke-width="3" fill="#fff"/><use xlink:href="#f" transform="matrix(1,0,0,1,1620,100) translate(29.07999999999999 63.15)"/><use xlink:href="#g" transform="matrix(1,0,0,1,1620,100) translate(72.03 63.15)"/><path d="M280.4 178.2v4m0 8.06v8.04m0 8.05v8.04m0 8.04v8.04m0 8.05v8.04m0 8.05v8.04m0 8.04v8.05m0 8.04v8.04m0 8.04v8.05m0 8.04v8.05m0 8.04v8.05m0 8.05v8.04m0 8.04v8.04m0 8.05v8.04m0 8.05v8.04m0 8.05v8.05m0 8.05v8.04m0 8.05v8.03m0 8.04v8.05m0 8.04v8.05m0 8.05V504m0 8.04v8.05m0 8.03v8.05m0 8.04v8.04m0 8.05v8.05m0 8.05v8.04m0 8.05v8.03m0 8.05v8.04m0 8.05v8.04m0 8.05v8.05m0 8.04v8.05m0 8.03v8.05m0 8.04v8.05m0 8.04v8.06m0 8.04v8.04m0 8.05v8.03m0 8.05v8.04m0 8.05v8.04m0 8.06v8.04m0 8.05v8.04m0 8.03v8.05m0 8.04v8.05m0 8.04v8.06m0 8.04v8.05m0 8.04v8.04m0 8.04v8.04m0 8.05v8.04m0 8.06v8.04m0 8.05v8.04m0 8.04v8.04m0 8.05v8.04m0 8.05v8.04m0 8.04v8.05m0 8.04v8.04m0 8.04v8.05m0 8.04v8.05m0 8.04v8.05m0 8.05v8.04m0 8.04v8.04m0 8.05v8.04m0 8.05v8.04m0 8.05v8.05m0 8.05v8.04m0 8.04v8.05m0 8.04v8.05m0 8.04v8.05m0 8.05v8.05m0 8.04v8.05m0 8.03v8.04m0 8.05v8.04m0 8.05v8.05m0 8.05v8.04m0 8.05v8.03m0 8.05v8.04m0 8.04v8.05m0 8.05v8.05m0 8.04v8.05m0 8.03v8.05m0 8.04v8.05m0 8.04v8.05m0 8.05v8.04m0 8.05v8.03m0 8.05v4.02M281.03 177.6H277" stroke="#5e5e5e" stroke-width="2" fill="none"/><path d="M281.4 1498.5h-2v-1.03h2z" fill="#5e5e5e"/><path d="M1220 222.5v4m0 8v8m0 8v8m0 8.02v8m0 8v8m0 8v8m0 8v8.02m0 8v8m0 8v8m0 8v8m0 8.02v8m0 8v8m0 8v8m0 8v8.02m0 8v8m0 8v8m0 8v8m0 8.02v8m0 8v8m0 8v8m0 8v8.02m0 8v8m0 8v8m0 8v8.02m0 8v8m0 8v8m0 8v8m0 8.02v8m0 8v8m0 8v8m0 8v8.02m0 8v8m0 8v8m0 8v8m0 8.02v8m0 8v8m0 8v8m0 8v8.02m0 8v8m0 8v8m0 8v8m0 8.02v8m0 8v8m0 8v8m0 8v8.02m0 8v8m0 8v8m0 8v8m0 8.02v8m0 8v8m0 8v8m0 8.02v8m0 8v8m0 8v8m0 8v8.02m0 8v8m0 8v8m0 8v8m0 8.02v8m0 8v8m0 8v8m0 8v8.02m0 8v8m0 8v8m0 8v8m0 8.02v8m0 8v8m0 8v8m0 8v8.02m0 8v8m0 8v8m0 8v8m0 8.02v8m0 8v8m0 8v8m0 8v8.02m0 8v8m0 8v8m0 8v8m0 8.02v8m0 8v8m0 8v8m0 8.02v8m0 8v8m0 8v8m0 8v8.02m0 8v4" stroke="#5e5e5e" stroke-width="2" fill="none"/><path d="M1221 222.53h-2v-1.03h2z" fill="#5e5e5e"/><path d="M1220 1598.97v1.03M1700 222.5v4m0 8v8m0 8v8m0 8.02v8m0 8v8m0 8v8m0 8v8.02m0 8v8m0 8v8m0 8v8m0 8.02v8m0 8v8m0 8v8m0 8v8.02m0 8v8m0 8v8m0 8v8m0 8.02v8m0 8v8m0 8v8m0 8v8.02m0 8v8m0 8v8m0 8v8.02m0 8v8m0 8v8m0 8v8m0 8.02v8m0 8v8m0 8v8m0 8v8.02m0 8v8m0 8v8m0 8v8m0 8.02v8m0 8v8m0 8v8m0 8v8.02m0 8v8m0 8v8m0 8v8m0 8.02v8m0 8v8m0 8v8m0 8v8.02m0 8v8m0 8v8m0 8v8m0 8.02v8m0 8v8m0 8v8m0 8.02v8m0 8v8m0 8v8m0 8v8.02m0 8v8m0 8v8m0 8v8m0 8.02v8m0 8v8m0 8v8m0 8v8.02m0 8v8m0 8v8m0 8v8m0 8.02v8m0 8v8m0 8v8m0 8v8.02m0 8v8m0 8v8m0 8v8m0 8.02v8m0 8v8m0 8v8m0 8v8.02m0 8v8m0 8v8m0 8v8m0 8.02v8m0 8v8m0 8v8m0 8.02v8m0 8v8m0 8v8m0 8v8.02m0 8v4" stroke="#5e5e5e" stroke-width="2" fill="none"/><path d="M1701 222.53h-2v-1.03h2z" fill="#5e5e5e"/><path d="M1700 1598.97v1.03" stroke="#5e5e5e" stroke-width="2" fill="none"/><path d="M452.64 320.2H302.5v-2h150.14zm227.36 0H547.36v-2H680z" fill="#5e5e5e"/><path d="M302.53 320.2h-1.03v-2h1.03zM695.26 319.2L681 323.82v-9.28z" fill="#5e5e5e"/><path d="M698.5 319.2l-18.5 6v-12.02zm-16.5 3.25l10.03-3.26-10.03-3.27z" fill="#5e5e5e"/><use xlink:href="#h" transform="matrix(1,0,0,1,452.641975308642,308.5235104103884) translate(0 14.222222222222223)"/><use xlink:href="#i" transform="matrix(1,0,0,1,452.641975308642,308.5235104103884) translate(45.333333333333336 14.222222222222223)"/><path d="M697.5 425.82h-3.93v-2h3.93zm-11.8 0h-7.86v-2h7.86zm-15.73 0h-7.86v-2h7.87zm-15.72 0h-7.87v-2h7.87zm-15.73 0h-7.87v-2h7.87zm-15.73 0h-7.88v-2h7.87zm-15.74 0h-7.87v-2h7.86zm-15.73 0h-7.87v-2h7.87zm-15.73 0h-7.86v-2h7.86zm-15.73 0H552v-2h7.87zm-111.62 0h-6.35v-2h6.35zm-14.2 0h-7.88v-2h7.87zm-15.74 0h-7.86v-2h7.87zm-15.72 0h-7.86v-2h7.86zm-15.73 0H379v-2h7.85zm-15.73 0h-7.86v-2h7.86zm-15.73 0h-7.87v-2h7.86zm-15.74 0h-7.86v-2h7.86zm-15.73 0H320v-2h3.93z" fill="#5e5e5e"/><path d="M698.5 425.82h-1.03v-2h1.03zM319 429.46l-14.26-4.64L319 420.2z" fill="#5e5e5e"/><path d="M320 430.84l-18.5-6.02 18.5-6zm-12.03-6.02l10.03 3.26v-6.52z" fill="#5e5e5e"/><use xlink:href="#j" transform="matrix(1,0,0,1,448.2469135802469,414.1570867590021) translate(0 14.222222222222223)"/><use xlink:href="#k" transform="matrix(1,0,0,1,448.2469135802469,414.1570867590021) translate(57.23456790123458 14.222222222222223)"/><path d="M414.52 510.5H302.5v-2h112.02zm265.48 0H538.7v-2H680z" fill="#5e5e5e"/><path d="M302.53 510.5h-1.03v-2h1.03zM695.26 509.5L681 514.12v-9.27z" fill="#5e5e5e"/><path d="M698.5 509.5l-18.5 6V503.5zm-16.5 3.25l10.03-3.26-10.03-3.27z" fill="#5e5e5e"/><use xlink:href="#l" transform="matrix(1,0,0,1,414.51616143556777,498.82671223871847) translate(0 14.222222222222223)"/><use xlink:href="#m" transform="matrix(1,0,0,1,414.51616143556777,498.82671223871847) translate(51.20987654320988 14.222222222222223)"/><path d="M925.1 760.46H742.5v-2h182.6zm254.9 0h-165.1v-2H1180z" fill="#5e5e5e"/><path d="M742.53 760.46h-1.03v-2h1.03zM1195.26 759.46L1181 764.1v-9.27z" fill="#5e5e5e"/><path d="M1198.5 759.46l-18.5 6v-12zm-16.5 3.26l10.03-3.26-10.03-3.26z" fill="#5e5e5e"/><use xlink:href="#n" transform="matrix(1,0,0,1,925.1111111111111,748.7949786459316) translate(0 14.222222222222223)"/><use xlink:href="#o" transform="matrix(1,0,0,1,925.1111111111111,748.7949786459316) translate(51.35802469135803 14.222222222222223)"/><path d="M1396.9 815.1h-154.4v-2h154.4zm263.1 0h-136.9v-2H1660z" fill="#5e5e5e"/><path d="M1242.53 815.1h-1.03v-2h1.03zM1675.26 814.1l-14.26 4.63v-9.27z" fill="#5e5e5e"/><path d="M1678.5 814.1l-18.5 6v-12.02zm-16.5 3.25l10.03-3.26-10.03-3.27z" fill="#5e5e5e"/><use xlink:href="#h" transform="matrix(1,0,0,1,1396.9135802469136,803.4241592703559) translate(0 14.222222222222223)"/><use xlink:href="#p" transform="matrix(1,0,0,1,1396.9135802469136,803.4241592703559) translate(45.333333333333336 14.222222222222223)"/><path d="M2100 106c0-3.3 2.7-6 6-6h148c3.3 0 6 2.7 6 6v108c0 3.3-2.7 6-6 6h-148c-3.3 0-6-2.7-6-6z" stroke="#5e5e5e" stroke-width="3" fill="#fff"/><use xlink:href="#q" transform="matrix(1,0,0,1,2100,100) translate(43.029999999999994 63.15)"/><use xlink:href="#r" transform="matrix(1,0,0,1,2100,100) translate(96.97999999999999 63.15)"/><path d="M2180 222.5v4m0 8v8m0 8v8m0 8.02v8m0 8v8m0 8v8m0 8v8.02m0 8v8m0 8v8m0 8v8m0 8.02v8m0 8v8m0 8v8m0 8v8.02m0 8v8m0 8v8m0 8v8m0 8.02v8m0 8v8m0 8v8m0 8v8.02m0 8v8m0 8v8m0 8v8.02m0 8v8m0 8v8m0 8v8m0 8.02v8m0 8v8m0 8v8m0 8v8.02m0 8v8m0 8v8m0 8v8m0 8.02v8m0 8v8m0 8v8m0 8v8.02m0 8v8m0 8v8m0 8v8m0 8.02v8m0 8v8m0 8v8m0 8v8.02m0 8v8m0 8v8m0 8v8m0 8.02v8m0 8v8m0 8v8m0 8.02v8m0 8v8m0 8v8m0 8v8.02m0 8v8m0 8v8m0 8v8m0 8.02v8m0 8v8m0 8v8m0 8v8.02m0 8v8m0 8v8m0 8v8m0 8.02v8m0 8v8m0 8v8m0 8v8.02m0 8v8m0 8v8m0 8v8m0 8.02v8m0 8v8m0 8v8m0 8v8.02m0 8v8m0 8v8m0 8v8m0 8.02v8m0 8v8m0 8v8m0 8.02v8m0 8v8m0 8v8m0 8v8.02m0 8v4" stroke="#5e5e5e" stroke-width="2" fill="none"/><path d="M2181 222.53h-2v-1.03h2z" fill="#5e5e5e"/><path d="M2180 1598.97v1.03M1701 968.8h460.5M1701.03 968.8H1700" stroke="#5e5e5e" stroke-width="2" fill="none"/><path d="M2176.76 968.8l-14.26 4.64v-9.27z" stroke="#5e5e5e" stroke-width="2" fill="#5e5e5e"/><use xlink:href="#s" transform="matrix(1,0,0,1,1946.7260287217093,943.4754633704491) translate(0 14.222222222222223)"/><path d="M1380 886c0-3.3 2.7-6 6-6h108c3.3 0 6 2.7 6 6v8c0 3.3-1.9 7.9-4.24 10.24l-1.52 1.52c-2.34 2.34-6.93 4.24-10.24 4.24h-98c-3.3 0-6-2.7-6-6z" fill="#fff"/><path d="M1500 880v20l-10 10h-110" stroke="#5e5e5e" stroke-width="3" fill="none"/><path d="M1380 886c0-3.3 2.7-6 6-6h928c3.3 0 6 2.7 6 6v548c0 3.3-2.7 6-6 6h-928c-3.3 0-6-2.7-6-6zM1380 1160h20m15 0h20m15 0h20m15 0h20m15 0h20m15 0h20m15 0h20m15 0h20m15 0h20m15 0h20m15 0h20m15 0h20m15 0h20m15 0h20m15 0h20m15 0h20m15 0h20m15 0h20m15 0h20m15 0h20m15 0h20m15 0h20m15 0h20m15 0h20m15 0h20m15 0h20m15 0h20" stroke="#5e5e5e" stroke-width="3" fill="none"/><use xlink:href="#t" transform="matrix(1,0,0,1,1388,880) translate(0 19.444444444444443)"/><use xlink:href="#u" transform="matrix(1,0,0,1,1392,918) translate(0 19.444444444444443)"/><use xlink:href="#v" transform="matrix(1,0,0,1,1392,918) translate(73.9506172839506 19.444444444444443)"/><use xlink:href="#u" transform="matrix(1,0,0,1,1392,1168) translate(0 19.444444444444443)"/><use xlink:href="#w" transform="matrix(1,0,0,1,1392,1168) translate(73.9506172839506 19.444444444444443)"/><path d="M1744.07 1026.03H1740v-2h4.07zm16.26 0h-8.13v-2h8.13zm16.26 0h-8.14v-2h8.13zm16.24 0h-8.13v-2h8.14zm16.26 0h-8.13v-2h8.13zm16.26 0h-8.13v-2h8.13zm16.26 0h-8.13v-2h8.12zm16.26 0h-8.13v-2h8.13zm9.4 0H1866v-2h1.28zm120.67 0h-8.13v-2h8.13zm16.26 0h-8.12v-2h8.13zm16.27 0h-8.13v-2h8.13zm16.26 0h-8.13v-2h8.13zm16.26 0h-8.14v-2h8.13zm16.25 0h-8.13v-2h8.13zm16.26 0h-8.12v-2h8.13zm16.27 0h-8.13v-2h8.13zm16.26 0h-8.13v-2h8.13zm16.26 0h-8.14v-2h8.13zm16.25 0h-8.13v-2h8.13zm16.26 0h-8.12v-2h8.13zm12.2 0h-4.06v-2h4.06zm-207.3 0h-7.93v-2h7.93zM1739 1029.66l-14.26-4.63 14.26-4.64z" fill="#5e5e5e"/><path d="M1740 1031.04l-18.5-6 18.5-6.03zm-12.03-6l10.03 3.24v-6.5zM2180 1026.03h-1.03v-2h1.03z" fill="#5e5e5e"/><use xlink:href="#x" transform="matrix(1,0,0,1,1867.279731673385,1014.359274913544) translate(0 14.222222222222223)"/><use xlink:href="#y" transform="matrix(1,0,0,1,1867.279731673385,1014.359274913544) translate(72.88888888888889 14.222222222222223)"/><path d="M1722.5 1086.24H2140" stroke="#5e5e5e" stroke-width="2" fill="none"/><path d="M1722.53 1087.24h-1.03v-2h1.03z" fill="#5e5e5e"/><path d="M2155.26 1086.24l-14.26 4.64v-9.28z" stroke="#5e5e5e" stroke-width="2" fill="#5e5e5e"/><use xlink:href="#z" transform="matrix(1,0,0,1,1887.2839506172838,1060.9068326678773) translate(0 14.222222222222223)"/><use xlink:href="#A" transform="matrix(1,0,0,1,1887.2839506172838,1060.9068326678773) translate(59.11111111111112 14.222222222222223)"/><path d="M1520 946c0-3.3 2.7-6 6-6h108c3.3 0 6 2.7 6 6v8c0 3.3-1.9 7.9-4.24 10.24l-1.52 1.52c-2.34 2.34-6.93 4.24-10.24 4.24h-98c-3.3 0-6-2.7-6-6z" fill="#fff"/><path d="M1640 940v20l-10 10h-110" stroke="#5e5e5e" stroke-width="3" fill="none"/><path d="M1520 946c0-3.3 2.7-6 6-6h668c3.3 0 6 2.7 6 6v188c0 3.3-2.7 6-6 6h-668c-3.3 0-6-2.7-6-6z" stroke="#5e5e5e" stroke-width="3" fill="none"/><use xlink:href="#B" transform="matrix(1,0,0,1,1528,940) translate(0 19.444444444444443)"/><use xlink:href="#C" transform="matrix(1,0,0,1,1532,978) translate(0 19.444444444444443)"/><use xlink:href="#D" transform="matrix(1,0,0,1,1532,978) translate(24.691358024691358 19.444444444444443)"/><use xlink:href="#E" transform="matrix(1,0,0,1,1532,978) translate(92.46913580246913 19.444444444444443)"/><path d="M1744.02 1229.66H1740v-2h4.02zm16.05 0h-8.02v-2h8.02zm16.06 0h-8.03v-2h8.03zm16.06 0h-8.04v-2h8.03zm16.05 0h-8.03v-2h8.03zm16.05 0h-8.02v-2h8.02zm16.06 0h-8.03v-2h8.03zm16.06 0h-8.03v-2h8.02zm10.8 0h-2.77v-2h2.77zm117.66 0h-8.03v-2h8.03zm16.06 0h-8.03v-2h8.04zm16.06 0h-8.03v-2h8.03zm16.05 0h-8.03v-2h8.03zm16.06 0h-8.02v-2h8.03zm16.07 0h-8.03v-2h8.03zm16.06 0h-8.03v-2h8.03zm16.05 0h-8.02v-2h8.02zm16.06 0h-8.03v-2h8.04zm16.06 0h-8.03v-2h8.03zm16.06 0h-8.03v-2h8.03zm12.04 0h-4v-2h4zm-188.68 0h-4.36v-2h4.36zM1739 1233.3l-14.26-4.64 14.26-4.64z" fill="#5e5e5e"/><path d="M1740 1234.67l-18.5-6 18.5-6.02zm-12.03-6l10.03 3.25v-6.52zM2158.5 1229.66h-1.03v-2h1.03z" fill="#5e5e5e"/><use xlink:href="#F" transform="matrix(1,0,0,1,1867.2244492095565,1217.9902663548296) translate(0 14.222222222222223)"/><use xlink:href="#G" transform="matrix(1,0,0,1,1867.2244492095565,1217.9902663548296) translate(57.777777777777786 14.222222222222223)"/><path d="M1871.75 1304.6H1722.5v-2h149.25zm268.25 0h-131.75v-2H2140z" fill="#5e5e5e"/><path d="M1722.53 1304.6h-1.03v-2h1.03zM2155.26 1303.6l-14.26 4.65v-9.27z" fill="#5e5e5e"/><path d="M2158.5 1303.6l-18.5 6.02v-12.02zm-16.5 3.27l10.03-3.26-10.03-3.25z" fill="#5e5e5e"/><use xlink:href="#H" transform="matrix(1,0,0,1,1871.7530864197531,1292.9464595234008) translate(0 14.222222222222223)"/><use xlink:href="#I" transform="matrix(1,0,0,1,1871.7530864197531,1292.9464595234008) translate(98.46913580246914 14.222222222222223)"/><path d="M324.1 598.4H320v-2h4.1zm16.36 0h-8.2v-2h8.2zm16.36 0h-8.18v-2h8.18zm16.36 0H365v-2h8.18zm16.37 0h-8.2v-2h8.2zm16.36 0h-8.17v-2h8.18zm16.37 0h-8.18v-2h8.17zm114.76 0h-8.23v-2h8.23zm16.46 0h-8.24v-2h8.23zm16.45 0h-8.23v-2h8.23zm16.46 0h-8.22v-2h8.23zm16.46 0h-8.23v-2h8.23zm16.46 0h-8.23v-2h8.22zm16.46 0h-8.23v-2h8.23zm16.46 0H644v-2h8.24zm16.46 0h-8.23v-2h8.23zm16.46 0h-8.23v-2h8.23zm12.34 0h-4.12v-2h4.12zM319 602.04l-14.26-4.63 14.26-4.63z" fill="#5e5e5e"/><path d="M320 603.42l-18.5-6 18.5-6.03zm-12.03-6l10.03 3.24v-6.5zM698.5 598.4h-1.03v-2h1.03z" fill="#5e5e5e"/><g><use xlink:href="#J" transform="matrix(1,0,0,1,429.6779707429841,586.7384118915729) translate(0 14.222222222222223)"/><use xlink:href="#K" transform="matrix(1,0,0,1,429.6779707429841,586.7384118915729) translate(46.320987654320994 14.222222222222223)"/></g><path d="M399.9 688.38h-97.4v-2h97.4zm280.1 0h-79.9v-2H680z" fill="#5e5e5e"/><path d="M302.53 688.38h-1.03v-2h1.03zM695.26 687.38L681 692v-9.26z" fill="#5e5e5e"/><path d="M698.5 687.38l-18.5 6v-12.02zm-16.5 3.25l10.03-3.25-10.03-3.26z" fill="#5e5e5e"/><g><use xlink:href="#L" transform="matrix(1,0,0,1,399.9012345679012,676.7085278929534) translate(0 14.222222222222223)"/><use xlink:href="#M" transform="matrix(1,0,0,1,399.9012345679012,676.7085278929534) translate(58.271604938271615 14.222222222222223)"/><use xlink:href="#N" transform="matrix(1,0,0,1,399.9012345679012,676.7085278929534) translate(111.55555555555557 14.222222222222223)"/></g><path d="M260 1506c0-3.3 2.7-6 6-6h1968c3.3 0 6 2.7 6 6v108c0 3.3-2.7 6-6 6H266c-3.3 0-6-2.7-6-6z" stroke="#5e5e5e" stroke-width="3" fill="#fff"/><g><use xlink:href="#O" transform="matrix(1,0,0,1,265,1505) translate(843.4876543209876 59.02777777777778)"/><use xlink:href="#P" transform="matrix(1,0,0,1,265,1505) translate(900.2777777777777 59.02777777777778)"/><use xlink:href="#Q" transform="matrix(1,0,0,1,265,1505) translate(931.0185185185185 59.02777777777778)"/><use xlink:href="#R" transform="matrix(1,0,0,1,265,1505) translate(992.6851851851852 59.02777777777778)"/><use xlink:href="#S" transform="matrix(1,0,0,1,265,1505) translate(1011.820987654321 59.02777777777778)"/><use xlink:href="#T" transform="matrix(1,0,0,1,265,1505) translate(1078.4259259259259 59.02777777777778)"/></g><path d="M260 286c0-3.3 2.7-6 6-6h28c3.3 0 6 2.7 6 6v428c0 3.3-2.7 6-6 6h-28c-3.3 0-6-2.7-6-6zM1200 746c0-3.3 2.7-6 6-6h28c3.3 0 6 2.7 6 6v108c0 3.3-2.7 6-6 6h-28c-3.3 0-6-2.7-6-6zM1680 786c0-3.3 2.7-6 6-6h28c3.3 0 6 2.7 6 6v568c0 3.3-2.7 6-6 6h-28c-3.3 0-6-2.7-6-6zM2160 926c0-3.3 2.7-6 6-6h28c3.3 0 6 2.7 6 6v408c0 3.3-2.7 6-6 6h-28c-3.3 0-6-2.7-6-6z" stroke="#5e5e5e" stroke-width="3" fill="#fff"/><defs><path fill="#333" d="M205 0l-28-72H64L36 0H1l101-248h38L239 0h-34zm-38-99l-47-123c-12 45-31 82-46 123h93" id="U"/><path fill="#333" d="M96-169c-40 0-48 33-48 73s9 75 48 75c24 0 41-14 43-38l32 2c-6 37-31 61-74 61-59 0-76-41-82-99-10-93 101-131 147-64 4 7 5 14 7 22l-32 3c-4-21-16-35-41-35" id="V"/><path fill="#333" d="M59-47c-2 24 18 29 38 22v24C64 9 27 4 27-40v-127H5v-23h24l9-43h21v43h35v23H59v120" id="W"/><path fill="#333" d="M100-194c62-1 85 37 85 99 1 63-27 99-86 99S16-35 15-95c0-66 28-99 85-99zM99-20c44 1 53-31 53-75 0-43-8-75-51-75s-53 32-53 75 10 74 51 75" id="X"/><path fill="#333" d="M114-163C36-179 61-72 57 0H25l-1-190h30c1 12-1 29 2 39 6-27 23-49 58-41v29" id="Y"/><g id="a"><use transform="matrix(0.06172839506172839,0,0,0.06172839506172839,0,0)" xlink:href="#U"/><use transform="matrix(0.06172839506172839,0,0,0.06172839506172839,14.814814814814813,0)" xlink:href="#V"/><use transform="matrix(0.06172839506172839,0,0,0.06172839506172839,25.925925925925924,0)" xlink:href="#W"/><use transform="matrix(0.06172839506172839,0,0,0.06172839506172839,32.098765432098766,0)" xlink:href="#X"/><use transform="matrix(0.06172839506172839,0,0,0.06172839506172839,44.44444444444444,0)" xlink:href="#Y"/></g><path d="M240 0l2-218c-23 76-54 145-80 218h-23L58-218 59 0H30v-248h44l77 211c21-75 51-140 76-211h43V0h-30" id="Z"/><path d="M141-36C126-15 110 5 73 4 37 3 15-17 15-53c-1-64 63-63 125-63 3-35-9-54-41-54-24 1-41 7-42 31l-33-3c5-37 33-52 76-52 45 0 72 20 72 64v82c-1 20 7 32 28 27v20c-31 9-61-2-59-35zM48-53c0 20 12 33 32 33 41-3 63-29 60-74-43 2-92-5-92 41" id="aa"/><path d="M24-231v-30h32v30H24zM24 0v-190h32V0H24" id="ab"/><path d="M117-194c89-4 53 116 60 194h-32v-121c0-31-8-49-39-48C34-167 62-67 57 0H25l-1-190h30c1 10-1 24 2 32 11-22 29-35 61-36" id="ac"/><g id="b"><use transform="matrix(0.05,0,0,0.05,0,0)" xlink:href="#Z"/><use transform="matrix(0.05,0,0,0.05,14.950000000000001,0)" xlink:href="#aa"/><use transform="matrix(0.05,0,0,0.05,24.950000000000003,0)" xlink:href="#ab"/><use transform="matrix(0.05,0,0,0.05,28.900000000000002,0)" xlink:href="#ac"/><path d="M-.9 1.25h45.7v1.32H-.9z"/></g><path d="M100-194c63 0 86 42 84 106H49c0 40 14 67 53 68 26 1 43-12 49-29l28 8c-11 28-37 45-77 45C44 4 14-33 15-96c1-61 26-98 85-98zm52 81c6-60-76-77-97-28-3 7-6 17-6 28h103" id="ad"/><path d="M84 4C-5 8 30-112 23-190h32v120c0 31 7 50 39 49 72-2 45-101 50-169h31l1 190h-30c-1-10 1-25-2-33-11 22-28 36-60 37" id="ae"/><g id="c"><use transform="matrix(0.05,0,0,0.05,0,0)" xlink:href="#Z"/><use transform="matrix(0.05,0,0,0.05,14.950000000000001,0)" xlink:href="#ad"/><use transform="matrix(0.05,0,0,0.05,24.950000000000003,0)" xlink:href="#ac"/><use transform="matrix(0.05,0,0,0.05,34.95,0)" xlink:href="#ae"/><path d="M-.9 1.25h46.75v1.32H-.9z"/></g><path d="M30-248c87 1 191-15 191 75 0 78-77 80-158 76V0H30v-248zm33 125c57 0 124 11 124-50 0-59-68-47-124-48v98" id="af"/><path d="M114-163C36-179 61-72 57 0H25l-1-190h30c1 12-1 29 2 39 6-27 23-49 58-41v29" id="ag"/><path d="M115-194c55 1 70 41 70 98S169 2 115 4C84 4 66-9 55-30l1 105H24l-1-265h31l2 30c10-21 28-34 59-34zm-8 174c40 0 45-34 45-75s-6-73-45-74c-42 0-51 32-51 76 0 43 10 73 51 73" id="ah"/><path d="M59-47c-2 24 18 29 38 22v24C64 9 27 4 27-40v-127H5v-23h24l9-43h21v43h35v23H59v120" id="ai"/><path d="M100-194c62-1 85 37 85 99 1 63-27 99-86 99S16-35 15-95c0-66 28-99 85-99zM99-20c44 1 53-31 53-75 0-43-8-75-51-75s-53 32-53 75 10 74 51 75" id="aj"/><g id="d"><use transform="matrix(0.05,0,0,0.05,0,0)" xlink:href="#af"/><use transform="matrix(0.05,0,0,0.05,12,0)" xlink:href="#ag"/><use transform="matrix(0.05,0,0,0.05,17.95,0)" xlink:href="#ad"/><use transform="matrix(0.05,0,0,0.05,27.950000000000003,0)" xlink:href="#ah"/><use transform="matrix(0.05,0,0,0.05,37.95,0)" xlink:href="#aa"/><use transform="matrix(0.05,0,0,0.05,47.95,0)" xlink:href="#ag"/><use transform="matrix(0.05,0,0,0.05,53.900000000000006,0)" xlink:href="#aa"/><use transform="matrix(0.05,0,0,0.05,63.900000000000006,0)" xlink:href="#ai"/><use transform="matrix(0.05,0,0,0.05,68.9,0)" xlink:href="#ab"/><use transform="matrix(0.05,0,0,0.05,72.85000000000001,0)" xlink:href="#aj"/><use transform="matrix(0.05,0,0,0.05,82.85000000000001,0)" xlink:href="#ac"/><path d="M-.9 1.25h99.65v1.32H-.9z"/></g><path d="M106-169C34-169 62-67 57 0H25v-261h32l-1 103c12-21 28-36 61-36 89 0 53 116 60 194h-32v-121c2-32-8-49-39-48" id="ak"/><path d="M135-143c-3-34-86-38-87 0 15 53 115 12 119 90S17 21 10-45l28-5c4 36 97 45 98 0-10-56-113-15-118-90-4-57 82-63 122-42 12 7 21 19 24 35" id="al"/><g id="e"><use transform="matrix(0.05,0,0,0.05,0,0)" xlink:href="#af"/><use transform="matrix(0.05,0,0,0.05,12,0)" xlink:href="#ak"/><use transform="matrix(0.05,0,0,0.05,22,0)" xlink:href="#aa"/><use transform="matrix(0.05,0,0,0.05,32,0)" xlink:href="#al"/><use transform="matrix(0.05,0,0,0.05,41,0)" xlink:href="#ad"/><path d="M-.9 1.25h52.8v1.32H-.9z"/></g><path d="M185-189c-5-48-123-54-124 2 14 75 158 14 163 119 3 78-121 87-175 55-17-10-28-26-33-46l33-7c5 56 141 63 141-1 0-78-155-14-162-118-5-82 145-84 179-34 5 7 8 16 11 25" id="am"/><g id="f"><use transform="matrix(0.05,0,0,0.05,0,0)" xlink:href="#am"/><use transform="matrix(0.05,0,0,0.05,12,0)" xlink:href="#ai"/><use transform="matrix(0.05,0,0,0.05,17,0)" xlink:href="#aa"/><use transform="matrix(0.05,0,0,0.05,27,0)" xlink:href="#ag"/><use transform="matrix(0.05,0,0,0.05,32.95,0)" xlink:href="#ai"/><path d="M-.9 1.25h44.75v1.32H-.9z"/></g><path d="M24 0v-261h32V0H24" id="an"/><path d="M179-190L93 31C79 59 56 82 12 73V49c39 6 53-20 64-50L1-190h34L92-34l54-156h33" id="ao"/><path d="M177-190C167-65 218 103 67 71c-23-6-38-20-44-43l32-5c15 47 100 32 89-28v-30C133-14 115 1 83 1 29 1 15-40 15-95c0-56 16-97 71-98 29-1 48 16 59 35 1-10 0-23 2-32h30zM94-22c36 0 50-32 50-73 0-42-14-75-50-75-39 0-46 34-46 75s6 73 46 73" id="ap"/><g id="g"><use transform="matrix(0.05,0,0,0.05,0,0)" xlink:href="#af"/><use transform="matrix(0.05,0,0,0.05,12,0)" xlink:href="#an"/><use transform="matrix(0.05,0,0,0.05,15.949999999999998,0)" xlink:href="#aa"/><use transform="matrix(0.05,0,0,0.05,25.950000000000003,0)" xlink:href="#ao"/><use transform="matrix(0.05,0,0,0.05,34.95,0)" xlink:href="#ab"/><use transform="matrix(0.05,0,0,0.05,38.900000000000006,0)" xlink:href="#ac"/><use transform="matrix(0.05,0,0,0.05,48.900000000000006,0)" xlink:href="#ap"/><path d="M-.9 1.25h60.7v1.32H-.9z"/></g><path fill="#333" d="M169-182c-1-43-94-46-97-3 18 66 151 10 154 114 3 95-165 93-204 36-6-8-10-19-12-30l50-8c3 46 112 56 116 5-17-69-150-10-154-114-4-87 153-88 188-35 5 8 8 18 10 28" id="aq"/><path fill="#333" d="M115-3C79 11 28 4 28-45v-112H4v-33h27l15-45h31v45h36v33H77v99c-1 23 16 31 38 25v30" id="ar"/><path fill="#333" d="M133-34C117-15 103 5 69 4 32 3 11-16 11-54c-1-60 55-63 116-61 1-26-3-47-28-47-18 1-26 9-28 27l-52-2c7-38 36-58 82-57s74 22 75 68l1 82c-1 14 12 18 25 15v27c-30 8-71 5-69-32zm-48 3c29 0 43-24 42-57-32 0-66-3-65 30 0 17 8 27 23 27" id="as"/><path fill="#333" d="M135-150c-39-12-60 13-60 57V0H25l-1-190h47c2 13-1 29 3 40 6-28 27-53 61-41v41" id="at"/><g id="h"><use transform="matrix(0.04938271604938272,0,0,0.04938271604938272,0,0)" xlink:href="#aq"/><use transform="matrix(0.04938271604938272,0,0,0.04938271604938272,11.851851851851853,0)" xlink:href="#ar"/><use transform="matrix(0.04938271604938272,0,0,0.04938271604938272,17.728395061728396,0)" xlink:href="#as"/><use transform="matrix(0.04938271604938272,0,0,0.04938271604938272,27.60493827160494,0)" xlink:href="#at"/><use transform="matrix(0.04938271604938272,0,0,0.04938271604938272,34.51851851851852,0)" xlink:href="#ar"/></g><path fill="#333" d="M67-125c0 54 23 88 75 88 28 0 53-7 68-21v-34h-60v-39h108v91C232-14 192 4 140 4 58 4 20-42 15-125 8-236 126-280 215-234c19 10 29 26 37 47l-47 15c-11-23-29-39-63-39-53 1-75 33-75 86" id="au"/><path fill="#333" d="M220-157c-53 9-28 100-34 157h-49v-107c1-27-5-49-29-50C55-147 81-57 75 0H25l-1-190h47c2 12-1 28 3 38 10-53 101-56 108 0 13-22 24-43 59-42 82 1 51 116 57 194h-49v-107c-1-25-5-48-29-50" id="av"/><path fill="#333" d="M185-48c-13 30-37 53-82 52C43 2 14-33 14-96s30-98 90-98c62 0 83 45 84 108H66c0 31 8 55 39 56 18 0 30-7 34-22zm-45-69c5-46-57-63-70-21-2 6-4 13-4 21h74" id="aw"/><g id="i"><use transform="matrix(0.04938271604938272,0,0,0.04938271604938272,0,0)" xlink:href="#au"/><use transform="matrix(0.04938271604938272,0,0,0.04938271604938272,13.827160493827162,0)" xlink:href="#as"/><use transform="matrix(0.04938271604938272,0,0,0.04938271604938272,23.703703703703706,0)" xlink:href="#av"/><use transform="matrix(0.04938271604938272,0,0,0.04938271604938272,39.50617283950618,0)" xlink:href="#aw"/></g><path fill="#333" d="M25 0v-261h50V0H25" id="ax"/><path fill="#333" d="M190-63c-7 42-38 67-86 67-59 0-84-38-90-98-12-110 154-137 174-36l-49 2c-2-19-15-32-35-32-30 0-35 28-38 64-6 74 65 87 74 30" id="ay"/><g id="j"><use transform="matrix(0.04938271604938272,0,0,0.04938271604938272,0,0)" xlink:href="#aq"/><use transform="matrix(0.04938271604938272,0,0,0.04938271604938272,11.851851851851853,0)" xlink:href="#aw"/><use transform="matrix(0.04938271604938272,0,0,0.04938271604938272,21.7283950617284,0)" xlink:href="#ax"/><use transform="matrix(0.04938271604938272,0,0,0.04938271604938272,26.666666666666668,0)" xlink:href="#aw"/><use transform="matrix(0.04938271604938272,0,0,0.04938271604938272,36.543209876543216,0)" xlink:href="#ay"/><use transform="matrix(0.04938271604938272,0,0,0.04938271604938272,46.41975308641976,0)" xlink:href="#ar"/></g><path fill="#333" d="M230 0l2-204L168 0h-37L68-204 70 0H24v-248h70l56 185 57-185h69V0h-46" id="az"/><path fill="#333" d="M110-194c64 0 96 36 96 99 0 64-35 99-97 99-61 0-95-36-95-99 0-62 34-99 96-99zm-1 164c35 0 45-28 45-65 0-40-10-65-43-65-34 0-45 26-45 65 0 36 10 65 43 65" id="aA"/><path fill="#333" d="M88-194c31-1 46 15 58 34l-1-101h50l1 261h-48c-2-10 0-23-3-31C134-8 116 4 84 4 32 4 16-41 15-95c0-56 19-97 73-99zm17 164c33 0 40-30 41-66 1-37-9-64-41-64s-38 30-39 65c0 43 13 65 39 65" id="aB"/><g id="k"><use transform="matrix(0.04938271604938272,0,0,0.04938271604938272,0,0)" xlink:href="#az"/><use transform="matrix(0.04938271604938272,0,0,0.04938271604938272,14.765432098765434,0)" xlink:href="#aA"/><use transform="matrix(0.04938271604938272,0,0,0.04938271604938272,25.58024691358025,0)" xlink:href="#aB"/><use transform="matrix(0.04938271604938272,0,0,0.04938271604938272,36.39506172839506,0)" xlink:href="#aw"/></g><g id="l"><use transform="matrix(0.04938271604938272,0,0,0.04938271604938272,0,0)" xlink:href="#az"/><use transform="matrix(0.04938271604938272,0,0,0.04938271604938272,14.765432098765434,0)" xlink:href="#aA"/><use transform="matrix(0.04938271604938272,0,0,0.04938271604938272,25.58024691358025,0)" xlink:href="#aB"/><use transform="matrix(0.04938271604938272,0,0,0.04938271604938272,36.39506172839506,0)" xlink:href="#aw"/></g><g id="m"><use transform="matrix(0.04938271604938272,0,0,0.04938271604938272,0,0)" xlink:href="#aq"/><use transform="matrix(0.04938271604938272,0,0,0.04938271604938272,11.851851851851853,0)" xlink:href="#aw"/><use transform="matrix(0.04938271604938272,0,0,0.04938271604938272,21.7283950617284,0)" xlink:href="#ax"/><use transform="matrix(0.04938271604938272,0,0,0.04938271604938272,26.666666666666668,0)" xlink:href="#aw"/><use transform="matrix(0.04938271604938272,0,0,0.04938271604938272,36.543209876543216,0)" xlink:href="#ay"/><use transform="matrix(0.04938271604938272,0,0,0.04938271604938272,46.41975308641976,0)" xlink:href="#ar"/><use transform="matrix(0.04938271604938272,0,0,0.04938271604938272,52.2962962962963,0)" xlink:href="#aw"/><use transform="matrix(0.04938271604938272,0,0,0.04938271604938272,62.17283950617284,0)" xlink:href="#aB"/></g><path fill="#333" d="M24-248c93 1 206-16 204 79-1 75-69 88-152 82V0H24v-248zm52 121c47 0 100 7 100-41 0-47-54-39-100-39v80" id="aC"/><g id="n"><use transform="matrix(0.04938271604938272,0,0,0.04938271604938272,0,0)" xlink:href="#aC"/><use transform="matrix(0.04938271604938272,0,0,0.04938271604938272,11.851851851851853,0)" xlink:href="#ax"/><use transform="matrix(0.04938271604938272,0,0,0.04938271604938272,16.790123456790127,0)" xlink:href="#as"/><use transform="matrix(0.04938271604938272,0,0,0.04938271604938272,26.666666666666668,0)" xlink:href="#ay"/><use transform="matrix(0.04938271604938272,0,0,0.04938271604938272,36.543209876543216,0)" xlink:href="#aw"/></g><path fill="#333" d="M114-157C55-157 80-60 75 0H25v-261h50l-1 109c12-26 28-41 61-42 86-1 58 113 63 194h-50c-7-57 23-157-34-157" id="aD"/><path fill="#333" d="M25-224v-37h50v37H25zM25 0v-190h50V0H25" id="aE"/><path fill="#333" d="M135-194c53 0 70 44 70 98 0 56-19 98-73 100-31 1-45-17-59-34 3 33 2 69 2 105H25l-1-265h48c2 10 0 23 3 31 11-24 29-35 60-35zM114-30c33 0 39-31 40-66 0-38-9-64-40-64-56 0-55 130 0 130" id="aF"/><g id="o"><use transform="matrix(0.04938271604938272,0,0,0.04938271604938272,0,0)" xlink:href="#aq"/><use transform="matrix(0.04938271604938272,0,0,0.04938271604938272,11.851851851851853,0)" xlink:href="#aD"/><use transform="matrix(0.04938271604938272,0,0,0.04938271604938272,22.666666666666668,0)" xlink:href="#aE"/><use transform="matrix(0.04938271604938272,0,0,0.04938271604938272,27.60493827160494,0)" xlink:href="#aF"/></g><path fill="#333" d="M85 4C-2 5 27-109 22-190h50c7 57-23 150 33 157 60-5 35-97 40-157h50l1 190h-47c-2-12 1-28-3-38-12 25-28 42-61 42" id="aG"/><path fill="#333" d="M137-138c1-29-70-34-71-4 15 46 118 7 119 86 1 83-164 76-172 9l43-7c4 19 20 25 44 25 33 8 57-30 24-41C81-84 22-81 20-136c-2-80 154-74 161-7" id="aH"/><path fill="#333" d="M135-194c87-1 58 113 63 194h-50c-7-57 23-157-34-157-59 0-34 97-39 157H25l-1-190h47c2 12-1 28 3 38 12-26 28-41 61-42" id="aI"/><path fill="#333" d="M195-6C206 82 75 100 31 46c-4-6-6-13-8-21l49-6c3 16 16 24 34 25 40 0 42-37 40-79-11 22-30 35-61 35-53 0-70-43-70-97 0-56 18-96 73-97 30 0 46 14 59 34l2-30h47zm-90-29c32 0 41-27 41-63 0-35-9-62-40-62-32 0-39 29-40 63 0 36 9 62 39 62" id="aJ"/><g id="p"><use transform="matrix(0.04938271604938272,0,0,0.04938271604938272,0,0)" xlink:href="#au"/><use transform="matrix(0.04938271604938272,0,0,0.04938271604938272,13.827160493827162,0)" xlink:href="#aG"/><use transform="matrix(0.04938271604938272,0,0,0.04938271604938272,24.641975308641975,0)" xlink:href="#aw"/><use transform="matrix(0.04938271604938272,0,0,0.04938271604938272,34.51851851851852,0)" xlink:href="#aH"/><use transform="matrix(0.04938271604938272,0,0,0.04938271604938272,44.39506172839506,0)" xlink:href="#aH"/><use transform="matrix(0.04938271604938272,0,0,0.04938271604938272,54.27160493827161,0)" xlink:href="#aE"/><use transform="matrix(0.04938271604938272,0,0,0.04938271604938272,59.20987654320988,0)" xlink:href="#aI"/><use transform="matrix(0.04938271604938272,0,0,0.04938271604938272,70.0246913580247,0)" xlink:href="#aJ"/></g><path d="M143 4C61 4 22-44 18-125c-5-107 100-154 193-111 17 8 29 25 37 43l-32 9c-13-25-37-40-76-40-61 0-88 39-88 99 0 61 29 100 91 101 35 0 62-11 79-27v-45h-74v-28h105v86C228-13 192 4 143 4" id="aK"/><path d="M210-169c-67 3-38 105-44 169h-31v-121c0-29-5-50-35-48C34-165 62-65 56 0H25l-1-190h30c1 10-1 24 2 32 10-44 99-50 107 0 11-21 27-35 58-36 85-2 47 119 55 194h-31v-121c0-29-5-49-35-48" id="aL"/><g id="q"><use transform="matrix(0.05,0,0,0.05,0,0)" xlink:href="#aK"/><use transform="matrix(0.05,0,0,0.05,14,0)" xlink:href="#aa"/><use transform="matrix(0.05,0,0,0.05,24,0)" xlink:href="#aL"/><use transform="matrix(0.05,0,0,0.05,38.95,0)" xlink:href="#ad"/><path d="M-.9 1.25h55.75v1.32H-.9z"/></g><g id="r"><use transform="matrix(0.05,0,0,0.05,0,0)" xlink:href="#aj"/><use transform="matrix(0.05,0,0,0.05,10,0)" xlink:href="#ac"/><path d="M-.9 1.25h21.8v1.32H-.9z"/></g><path fill="#333" d="M199 0l-22-63H83L61 0H9l90-248h61L250 0h-51zm-33-102l-36-108c-10 38-24 72-36 108h72" id="aM"/><path fill="#333" d="M147 0L96-86 75-71V0H25v-261h50v150l67-79h53l-66 74L201 0h-54" id="aN"/><g id="s"><use transform="matrix(0.04938271604938272,0,0,0.04938271604938272,0,0)" xlink:href="#aM"/><use transform="matrix(0.04938271604938272,0,0,0.04938271604938272,12.790123456790125,0)" xlink:href="#ar"/><use transform="matrix(0.04938271604938272,0,0,0.04938271604938272,18.666666666666668,0)" xlink:href="#ar"/><use transform="matrix(0.04938271604938272,0,0,0.04938271604938272,24.543209876543212,0)" xlink:href="#as"/><use transform="matrix(0.04938271604938272,0,0,0.04938271604938272,34.41975308641976,0)" xlink:href="#ay"/><use transform="matrix(0.04938271604938272,0,0,0.04938271604938272,44.296296296296305,0)" xlink:href="#aN"/></g><path fill="#333" d="M24 0v-261h32V0H24" id="aO"/><path fill="#333" d="M100-194c63 0 86 42 84 106H49c0 40 14 67 53 68 26 1 43-12 49-29l28 8c-11 28-37 45-77 45C44 4 14-33 15-96c1-61 26-98 85-98zm52 81c6-60-76-77-97-28-3 7-6 17-6 28h103" id="aP"/><path fill="#333" d="M117-194c89-4 53 116 60 194h-32v-121c0-31-8-49-39-48C34-167 62-67 57 0H25l-1-190h30c1 10-1 24 2 32 11-22 29-35 61-36" id="aQ"/><path fill="#333" d="M141-36C126-15 110 5 73 4 37 3 15-17 15-53c-1-64 63-63 125-63 3-35-9-54-41-54-24 1-41 7-42 31l-33-3c5-37 33-52 76-52 45 0 72 20 72 64v82c-1 20 7 32 28 27v20c-31 9-61-2-59-35zM48-53c0 20 12 33 32 33 41-3 63-29 60-74-43 2-92-5-92 41" id="aR"/><path fill="#333" d="M24-231v-30h32v30H24zM24 0v-190h32V0H24" id="aS"/><path fill="#333" d="M108 0H70L1-190h34L89-25l56-165h34" id="aT"/><g id="t"><use transform="matrix(0.06172839506172839,0,0,0.06172839506172839,0,0)" xlink:href="#U"/><use transform="matrix(0.06172839506172839,0,0,0.06172839506172839,14.814814814814813,0)" xlink:href="#aO"/><use transform="matrix(0.06172839506172839,0,0,0.06172839506172839,19.691358024691354,0)" xlink:href="#W"/><use transform="matrix(0.06172839506172839,0,0,0.06172839506172839,25.864197530864192,0)" xlink:href="#aP"/><use transform="matrix(0.06172839506172839,0,0,0.06172839506172839,38.20987654320987,0)" xlink:href="#Y"/><use transform="matrix(0.06172839506172839,0,0,0.06172839506172839,45.55555555555555,0)" xlink:href="#aQ"/><use transform="matrix(0.06172839506172839,0,0,0.06172839506172839,57.90123456790123,0)" xlink:href="#aR"/><use transform="matrix(0.06172839506172839,0,0,0.06172839506172839,70.24691358024691,0)" xlink:href="#W"/><use transform="matrix(0.06172839506172839,0,0,0.06172839506172839,76.41975308641975,0)" xlink:href="#aS"/><use transform="matrix(0.06172839506172839,0,0,0.06172839506172839,81.29629629629629,0)" xlink:href="#aT"/><use transform="matrix(0.06172839506172839,0,0,0.06172839506172839,92.4074074074074,0)" xlink:href="#aP"/></g><path fill="#333" d="M26 75v-336h71v23H56V52h41v23H26" id="aU"/><path fill="#333" d="M127-220V0H93v-220H8v-28h204v28h-85" id="aV"/><path fill="#333" d="M177-190C167-65 218 103 67 71c-23-6-38-20-44-43l32-5c15 47 100 32 89-28v-30C133-14 115 1 83 1 29 1 15-40 15-95c0-56 16-97 71-98 29-1 48 16 59 35 1-10 0-23 2-32h30zM94-22c36 0 50-32 50-73 0-42-14-75-50-75-39 0-46 34-46 75s6 73 46 73" id="aW"/><g id="u"><use transform="matrix(0.06172839506172839,0,0,0.06172839506172839,0,0)" xlink:href="#aU"/><use transform="matrix(0.06172839506172839,0,0,0.06172839506172839,6.172839506172839,0)" xlink:href="#aV"/><use transform="matrix(0.06172839506172839,0,0,0.06172839506172839,17.22222222222222,0)" xlink:href="#aR"/><use transform="matrix(0.06172839506172839,0,0,0.06172839506172839,29.5679012345679,0)" xlink:href="#Y"/><use transform="matrix(0.06172839506172839,0,0,0.06172839506172839,36.913580246913575,0)" xlink:href="#aW"/><use transform="matrix(0.06172839506172839,0,0,0.06172839506172839,49.25925925925925,0)" xlink:href="#aP"/><use transform="matrix(0.06172839506172839,0,0,0.06172839506172839,61.60493827160493,0)" xlink:href="#W"/></g><path fill="#333" d="M106-169C34-169 62-67 57 0H25v-261h32l-1 103c12-21 28-36 61-36 89 0 53 116 60 194h-32v-121c2-32-8-49-39-48" id="aX"/><path fill="#333" d="M3 75V52h41v-290H3v-23h71V75H3" id="aY"/><g id="v"><use transform="matrix(0.06172839506172839,0,0,0.06172839506172839,0,0)" xlink:href="#aX"/><use transform="matrix(0.06172839506172839,0,0,0.06172839506172839,12.345679012345679,0)" xlink:href="#aS"/><use transform="matrix(0.06172839506172839,0,0,0.06172839506172839,17.22222222222222,0)" xlink:href="#W"/><use transform="matrix(0.06172839506172839,0,0,0.06172839506172839,23.39506172839506,0)" xlink:href="#aY"/></g><path fill="#333" d="M210-169c-67 3-38 105-44 169h-31v-121c0-29-5-50-35-48C34-165 62-65 56 0H25l-1-190h30c1 10-1 24 2 32 10-44 99-50 107 0 11-21 27-35 58-36 85-2 47 119 55 194h-31v-121c0-29-5-49-35-48" id="aZ"/><path fill="#333" d="M135-143c-3-34-86-38-87 0 15 53 115 12 119 90S17 21 10-45l28-5c4 36 97 45 98 0-10-56-113-15-118-90-4-57 82-63 122-42 12 7 21 19 24 35" id="ba"/><g id="w"><use transform="matrix(0.06172839506172839,0,0,0.06172839506172839,0,0)" xlink:href="#aZ"/><use transform="matrix(0.06172839506172839,0,0,0.06172839506172839,18.456790123456788,0)" xlink:href="#aS"/><use transform="matrix(0.06172839506172839,0,0,0.06172839506172839,23.33333333333333,0)" xlink:href="#ba"/><use transform="matrix(0.06172839506172839,0,0,0.06172839506172839,34.44444444444444,0)" xlink:href="#ba"/><use transform="matrix(0.06172839506172839,0,0,0.06172839506172839,45.55555555555556,0)" xlink:href="#aY"/></g><path fill="#333" d="M67-125c0 53 21 87 73 88 37 1 54-22 65-47l45 17C233-25 199 4 140 4 58 4 20-42 15-125 8-235 124-281 211-232c18 10 29 29 36 50l-46 12c-8-25-30-41-62-41-52 0-71 34-72 86" id="bb"/><path fill="#333" d="M121-226c-27-7-43 5-38 36h38v33H83V0H34v-157H6v-33h28c-9-59 32-81 87-68v32" id="bc"/><g id="x"><use transform="matrix(0.04938271604938272,0,0,0.04938271604938272,0,0)" xlink:href="#bb"/><use transform="matrix(0.04938271604938272,0,0,0.04938271604938272,12.790123456790125,0)" xlink:href="#aA"/><use transform="matrix(0.04938271604938272,0,0,0.04938271604938272,23.60493827160494,0)" xlink:href="#aI"/><use transform="matrix(0.04938271604938272,0,0,0.04938271604938272,34.41975308641975,0)" xlink:href="#bc"/><use transform="matrix(0.04938271604938272,0,0,0.04938271604938272,40.2962962962963,0)" xlink:href="#aE"/><use transform="matrix(0.04938271604938272,0,0,0.04938271604938272,45.23456790123457,0)" xlink:href="#at"/><use transform="matrix(0.04938271604938272,0,0,0.04938271604938272,52.14814814814815,0)" xlink:href="#av"/></g><path fill="#333" d="M186 0v-106H76V0H24v-248h52v99h110v-99h50V0h-50" id="bd"/><g id="y"><use transform="matrix(0.04938271604938272,0,0,0.04938271604938272,0,0)" xlink:href="#bd"/><use transform="matrix(0.04938271604938272,0,0,0.04938271604938272,12.790123456790125,0)" xlink:href="#aE"/><use transform="matrix(0.04938271604938272,0,0,0.04938271604938272,17.7283950617284,0)" xlink:href="#ar"/></g><g id="z"><use transform="matrix(0.04938271604938272,0,0,0.04938271604938272,0,0)" xlink:href="#aM"/><use transform="matrix(0.04938271604938272,0,0,0.04938271604938272,12.790123456790125,0)" xlink:href="#ar"/><use transform="matrix(0.04938271604938272,0,0,0.04938271604938272,18.666666666666668,0)" xlink:href="#ar"/><use transform="matrix(0.04938271604938272,0,0,0.04938271604938272,24.543209876543212,0)" xlink:href="#as"/><use transform="matrix(0.04938271604938272,0,0,0.04938271604938272,34.41975308641976,0)" xlink:href="#ay"/><use transform="matrix(0.04938271604938272,0,0,0.04938271604938272,44.296296296296305,0)" xlink:href="#aN"/></g><g id="A"><use transform="matrix(0.04938271604938272,0,0,0.04938271604938272,0,0)" xlink:href="#as"/><use transform="matrix(0.04938271604938272,0,0,0.04938271604938272,9.876543209876544,0)" xlink:href="#aJ"/><use transform="matrix(0.04938271604938272,0,0,0.04938271604938272,20.69135802469136,0)" xlink:href="#as"/><use transform="matrix(0.04938271604938272,0,0,0.04938271604938272,30.567901234567906,0)" xlink:href="#aE"/><use transform="matrix(0.04938271604938272,0,0,0.04938271604938272,35.50617283950618,0)" xlink:href="#aI"/></g><path fill="#333" d="M30 0v-248h33v221h125V0H30" id="be"/><path fill="#333" d="M115-194c55 1 70 41 70 98S169 2 115 4C84 4 66-9 55-30l1 105H24l-1-265h31l2 30c10-21 28-34 59-34zm-8 174c40 0 45-34 45-75s-6-73-45-74c-42 0-51 32-51 76 0 43 10 73 51 73" id="bf"/><g id="B"><use transform="matrix(0.06172839506172839,0,0,0.06172839506172839,0,0)" xlink:href="#be"/><use transform="matrix(0.06172839506172839,0,0,0.06172839506172839,12.345679012345679,0)" xlink:href="#X"/><use transform="matrix(0.06172839506172839,0,0,0.06172839506172839,24.691358024691358,0)" xlink:href="#X"/><use transform="matrix(0.06172839506172839,0,0,0.06172839506172839,37.03703703703704,0)" xlink:href="#bf"/></g><path fill="#333" d="M33 0v-248h34V0H33" id="bg"/><path fill="#333" d="M101-234c-31-9-42 10-38 44h38v23H63V0H32v-167H5v-23h27c-7-52 17-82 69-68v24" id="bh"/><g id="C"><use transform="matrix(0.06172839506172839,0,0,0.06172839506172839,0,0)" xlink:href="#aU"/><use transform="matrix(0.06172839506172839,0,0,0.06172839506172839,6.172839506172839,0)" xlink:href="#bg"/><use transform="matrix(0.06172839506172839,0,0,0.06172839506172839,12.345679012345679,0)" xlink:href="#bh"/></g><g id="D"><use transform="matrix(0.06172839506172839,0,0,0.06172839506172839,0,0)" xlink:href="#aV"/><use transform="matrix(0.06172839506172839,0,0,0.06172839506172839,11.049382716049381,0)" xlink:href="#aR"/><use transform="matrix(0.06172839506172839,0,0,0.06172839506172839,23.39506172839506,0)" xlink:href="#Y"/><use transform="matrix(0.06172839506172839,0,0,0.06172839506172839,30.74074074074074,0)" xlink:href="#aW"/><use transform="matrix(0.06172839506172839,0,0,0.06172839506172839,43.08641975308642,0)" xlink:href="#aP"/><use transform="matrix(0.06172839506172839,0,0,0.06172839506172839,55.432098765432094,0)" xlink:href="#W"/></g><path fill="#333" d="M197 0v-115H63V0H30v-248h33v105h134v-105h34V0h-34" id="bi"/><g id="E"><use transform="matrix(0.06172839506172839,0,0,0.06172839506172839,0,0)" xlink:href="#bi"/><use transform="matrix(0.06172839506172839,0,0,0.06172839506172839,15.987654320987653,0)" xlink:href="#aS"/><use transform="matrix(0.06172839506172839,0,0,0.06172839506172839,20.864197530864196,0)" xlink:href="#W"/><use transform="matrix(0.06172839506172839,0,0,0.06172839506172839,27.037037037037035,0)" xlink:href="#ba"/><use transform="matrix(0.06172839506172839,0,0,0.06172839506172839,38.148148148148145,0)" xlink:href="#aY"/></g><path fill="#333" d="M136-208V0H84v-208H4v-40h212v40h-80" id="bj"/><g id="F"><use transform="matrix(0.04938271604938272,0,0,0.04938271604938272,0,0)" xlink:href="#bj"/><use transform="matrix(0.04938271604938272,0,0,0.04938271604938272,9.481481481481481,0)" xlink:href="#as"/><use transform="matrix(0.04938271604938272,0,0,0.04938271604938272,19.358024691358025,0)" xlink:href="#at"/><use transform="matrix(0.04938271604938272,0,0,0.04938271604938272,26.271604938271608,0)" xlink:href="#aJ"/><use transform="matrix(0.04938271604938272,0,0,0.04938271604938272,37.086419753086425,0)" xlink:href="#aw"/><use transform="matrix(0.04938271604938272,0,0,0.04938271604938272,46.96296296296297,0)" xlink:href="#ar"/></g><g id="G"><use transform="matrix(0.04938271604938272,0,0,0.04938271604938272,0,0)" xlink:href="#az"/><use transform="matrix(0.04938271604938272,0,0,0.04938271604938272,14.765432098765434,0)" xlink:href="#aE"/><use transform="matrix(0.04938271604938272,0,0,0.04938271604938272,19.703703703703706,0)" xlink:href="#aH"/><use transform="matrix(0.04938271604938272,0,0,0.04938271604938272,29.58024691358025,0)" xlink:href="#aH"/></g><path fill="#333" d="M140-251c80 0 125 45 125 126S219 4 139 4C58 4 15-44 15-125s44-126 125-126zm-1 214c52 0 73-35 73-88 0-50-21-86-72-86-52 0-73 35-73 86s22 88 72 88" id="bk"/><g id="H"><use transform="matrix(0.04938271604938272,0,0,0.04938271604938272,0,0)" xlink:href="#bk"/><use transform="matrix(0.04938271604938272,0,0,0.04938271604938272,13.827160493827162,0)" xlink:href="#aF"/><use transform="matrix(0.04938271604938272,0,0,0.04938271604938272,24.641975308641975,0)" xlink:href="#aF"/><use transform="matrix(0.04938271604938272,0,0,0.04938271604938272,35.45679012345679,0)" xlink:href="#aA"/><use transform="matrix(0.04938271604938272,0,0,0.04938271604938272,46.27160493827161,0)" xlink:href="#aI"/><use transform="matrix(0.04938271604938272,0,0,0.04938271604938272,57.086419753086425,0)" xlink:href="#aw"/><use transform="matrix(0.04938271604938272,0,0,0.04938271604938272,66.96296296296296,0)" xlink:href="#aI"/><use transform="matrix(0.04938271604938272,0,0,0.04938271604938272,77.77777777777777,0)" xlink:href="#ar"/><use transform="matrix(0.04938271604938272,0,0,0.04938271604938272,83.65432098765432,0)" xlink:href="#aH"/></g><g id="I"><use transform="matrix(0.04938271604938272,0,0,0.04938271604938272,0,0)" xlink:href="#bj"/><use transform="matrix(0.04938271604938272,0,0,0.04938271604938272,9.481481481481481,0)" xlink:href="#aG"/><use transform="matrix(0.04938271604938272,0,0,0.04938271604938272,20.296296296296298,0)" xlink:href="#at"/><use transform="matrix(0.04938271604938272,0,0,0.04938271604938272,27.20987654320988,0)" xlink:href="#aI"/></g><path fill="#333" d="M24 0v-248h52V0H24" id="bl"/><g id="J"><use transform="matrix(0.04938271604938272,0,0,0.04938271604938272,0,0)" xlink:href="#bl"/><use transform="matrix(0.04938271604938272,0,0,0.04938271604938272,4.938271604938272,0)" xlink:href="#aI"/><use transform="matrix(0.04938271604938272,0,0,0.04938271604938272,15.753086419753087,0)" xlink:href="#aH"/><use transform="matrix(0.04938271604938272,0,0,0.04938271604938272,25.629629629629633,0)" xlink:href="#aw"/><use transform="matrix(0.04938271604938272,0,0,0.04938271604938272,35.50617283950618,0)" xlink:href="#ar"/></g><g id="K"><use transform="matrix(0.04938271604938272,0,0,0.04938271604938272,0,0)" xlink:href="#aI"/><use transform="matrix(0.04938271604938272,0,0,0.04938271604938272,10.814814814814815,0)" xlink:href="#as"/><use transform="matrix(0.04938271604938272,0,0,0.04938271604938272,20.69135802469136,0)" xlink:href="#av"/><use transform="matrix(0.04938271604938272,0,0,0.04938271604938272,36.49382716049383,0)" xlink:href="#aw"/></g><path fill="#333" d="M123 10C108 53 80 86 19 72V37c35 8 53-11 59-39L3-190h52l48 148c12-52 28-100 44-148h51" id="bm"/><g id="L"><use transform="matrix(0.04938271604938272,0,0,0.04938271604938272,0,0)" xlink:href="#aC"/><use transform="matrix(0.04938271604938272,0,0,0.04938271604938272,11.851851851851853,0)" xlink:href="#ax"/><use transform="matrix(0.04938271604938272,0,0,0.04938271604938272,16.790123456790127,0)" xlink:href="#as"/><use transform="matrix(0.04938271604938272,0,0,0.04938271604938272,26.666666666666668,0)" xlink:href="#bm"/><use transform="matrix(0.04938271604938272,0,0,0.04938271604938272,36.543209876543216,0)" xlink:href="#aw"/><use transform="matrix(0.04938271604938272,0,0,0.04938271604938272,46.41975308641976,0)" xlink:href="#at"/></g><path fill="#333" d="M175 0L67-191c6 58 2 128 3 191H24v-248h59L193-55c-6-58-2-129-3-193h46V0h-61" id="bn"/><g id="M"><use transform="matrix(0.04938271604938272,0,0,0.04938271604938272,0,0)" xlink:href="#bn"/><use transform="matrix(0.04938271604938272,0,0,0.04938271604938272,12.790123456790125,0)" xlink:href="#as"/><use transform="matrix(0.04938271604938272,0,0,0.04938271604938272,22.66666666666667,0)" xlink:href="#av"/><use transform="matrix(0.04938271604938272,0,0,0.04938271604938272,38.46913580246914,0)" xlink:href="#aw"/></g><g id="N"><use transform="matrix(0.04938271604938272,0,0,0.04938271604938272,0,0)" xlink:href="#bb"/><use transform="matrix(0.04938271604938272,0,0,0.04938271604938272,12.790123456790125,0)" xlink:href="#aA"/><use transform="matrix(0.04938271604938272,0,0,0.04938271604938272,23.60493827160494,0)" xlink:href="#aI"/><use transform="matrix(0.04938271604938272,0,0,0.04938271604938272,34.41975308641975,0)" xlink:href="#bc"/><use transform="matrix(0.04938271604938272,0,0,0.04938271604938272,40.2962962962963,0)" xlink:href="#aE"/><use transform="matrix(0.04938271604938272,0,0,0.04938271604938272,45.23456790123457,0)" xlink:href="#at"/><use transform="matrix(0.04938271604938272,0,0,0.04938271604938272,52.14814814814815,0)" xlink:href="#av"/><use transform="matrix(0.04938271604938272,0,0,0.04938271604938272,67.95061728395062,0)" xlink:href="#aw"/><use transform="matrix(0.04938271604938272,0,0,0.04938271604938272,77.82716049382717,0)" xlink:href="#aB"/></g><path fill="#333" d="M185-189c-5-48-123-54-124 2 14 75 158 14 163 119 3 78-121 87-175 55-17-10-28-26-33-46l33-7c5 56 141 63 141-1 0-78-155-14-162-118-5-82 145-84 179-34 5 7 8 16 11 25" id="bo"/><path fill="#333" d="M84 4C-5 8 30-112 23-190h32v120c0 31 7 50 39 49 72-2 45-101 50-169h31l1 190h-30c-1-10 1-25-2-33-11 22-28 36-60 37" id="bp"/><path fill="#333" d="M143 0L79-87 56-68V0H24v-261h32v163l83-92h37l-77 82L181 0h-38" id="bq"/><g id="O"><use transform="matrix(0.06172839506172839,0,0,0.06172839506172839,0,0)" xlink:href="#bo"/><use transform="matrix(0.06172839506172839,0,0,0.06172839506172839,14.814814814814813,0)" xlink:href="#bp"/><use transform="matrix(0.06172839506172839,0,0,0.06172839506172839,27.160493827160494,0)" xlink:href="#aQ"/><use transform="matrix(0.06172839506172839,0,0,0.06172839506172839,39.50617283950617,0)" xlink:href="#bq"/></g><g id="P"><use transform="matrix(0.06172839506172839,0,0,0.06172839506172839,0,0)" xlink:href="#U"/><use transform="matrix(0.06172839506172839,0,0,0.06172839506172839,14.814814814814813,0)" xlink:href="#aO"/><use transform="matrix(0.06172839506172839,0,0,0.06172839506172839,19.691358024691354,0)" xlink:href="#aO"/></g><g id="Q"><use transform="matrix(0.06172839506172839,0,0,0.06172839506172839,0,0)" xlink:href="#bo"/><use transform="matrix(0.06172839506172839,0,0,0.06172839506172839,14.814814814814813,0)" xlink:href="#aX"/><use transform="matrix(0.06172839506172839,0,0,0.06172839506172839,27.160493827160494,0)" xlink:href="#aS"/><use transform="matrix(0.06172839506172839,0,0,0.06172839506172839,32.03703703703704,0)" xlink:href="#bf"/><use transform="matrix(0.06172839506172839,0,0,0.06172839506172839,44.382716049382715,0)" xlink:href="#ba"/></g><path fill="#333" d="M18-150v-26h174v26H18zm0 90v-26h174v26H18" id="br"/><use transform="matrix(0.06172839506172839,0,0,0.06172839506172839,0,0)" xlink:href="#br" id="R"/><path fill="#333" d="M143 4C61 4 22-44 18-125c-5-107 100-154 193-111 17 8 29 25 37 43l-32 9c-13-25-37-40-76-40-61 0-88 39-88 99 0 61 29 100 91 101 35 0 62-11 79-27v-45h-74v-28h105v86C228-13 192 4 143 4" id="bs"/><g id="S"><use transform="matrix(0.06172839506172839,0,0,0.06172839506172839,0,0)" xlink:href="#bs"/><use transform="matrix(0.06172839506172839,0,0,0.06172839506172839,17.28395061728395,0)" xlink:href="#aR"/><use transform="matrix(0.06172839506172839,0,0,0.06172839506172839,29.629629629629626,0)" xlink:href="#aZ"/><use transform="matrix(0.06172839506172839,0,0,0.06172839506172839,48.08641975308642,0)" xlink:href="#aP"/></g><path fill="#333" d="M140-251c81 0 123 46 123 126C263-46 219 4 140 4 59 4 17-45 17-125s42-126 123-126zm0 227c63 0 89-41 89-101s-29-99-89-99c-61 0-89 39-89 99S79-25 140-24" id="bt"/><g id="T"><use transform="matrix(0.06172839506172839,0,0,0.06172839506172839,0,0)" xlink:href="#bt"/><use transform="matrix(0.06172839506172839,0,0,0.06172839506172839,17.28395061728395,0)" xlink:href="#aT"/><use transform="matrix(0.06172839506172839,0,0,0.06172839506172839,28.39506172839506,0)" xlink:href="#aP"/><use transform="matrix(0.06172839506172839,0,0,0.06172839506172839,40.74074074074074,0)" xlink:href="#Y"/></g></defs></g></svg>