<svg xmlns="http://www.w3.org/2000/svg" xmlns:xlink="http://www.w3.org/1999/xlink" xmlns:lucid="lucid" width="3181.18" height="2500"><g transform="translate(480 -360)" lucid:page-tab-id="0_0"><path d="M-1806.87 0h5484.6v3840.5h-5484.6z" fill="#fff"/><path d="M-333.33 1362.22c0 23.32-18.9 42.22-42.23 42.22-23.3 0-42.22-18.9-42.22-42.22s18.9-42.22 42.22-42.22 42.23 18.9 42.23 42.22z" stroke="#5e5e5e" stroke-width="3" fill="#fff"/><path d="M-375.56 1404.44v124.36c0 3.3 1.37 8.3 3.05 11.17l81.4 138.03m-84.46-143.2L-460 1678m0-231.33h168.9" stroke="#5e5e5e" stroke-width="3" fill="none"/><path d="M-460 1326c0-3.3 2.7-6 6-6h156.9c3.3 0 6 2.7 6 6v368c0 3.3-2.7 6-6 6H-454c-3.3 0-6-2.7-6-6z" fill="none"/><use xlink:href="#a" transform="matrix(1,0,0,1,-540,1678) translate(138.60493827160494 17.77777777777778)"/><path d="M240 386c0-3.3 2.7-6 6-6h1328c3.3 0 6 2.7 6 6v2448c0 3.3-2.7 6-6 6H246c-3.3 0-6-2.7-6-6z" stroke="#5e5e5e" stroke-width="3" fill-opacity="0"/><use xlink:href="#b" transform="matrix(1,0,0,1,248,388) translate(611.4444444444445 17.77777777777778)"/><path d="M980 520c0 33.14-35.82 60-80 60s-80-26.86-80-60 35.82-60 80-60 80 26.86 80 60z" stroke="#5e5e5e" stroke-width="3" fill="#fff"/><use xlink:href="#c" transform="matrix(1,0,0,1,820,460) translate(34.055 63.15)"/><use xlink:href="#d" transform="matrix(1,0,0,1,820,460) translate(77.005 63.15)"/><path d="M980 820c0 33.14-35.82 60-80 60s-80-26.86-80-60 35.82-60 80-60 80 26.86 80 60z" stroke="#5e5e5e" stroke-width="3" fill="#fff"/><use xlink:href="#e" transform="matrix(1,0,0,1,820,760) translate(35.07999999999999 63.15)"/><use xlink:href="#d" transform="matrix(1,0,0,1,820,760) translate(75.97999999999999 63.15)"/><path d="M980 1500c0 33.14-35.82 60-80 60s-80-26.86-80-60 35.82-60 80-60 80 26.86 80 60z" stroke="#5e5e5e" stroke-width="3" fill="#fff"/><use xlink:href="#f" transform="matrix(1,0,0,1,820,1440) translate(30.055 63.15)"/><use xlink:href="#g" transform="matrix(1,0,0,1,820,1440) translate(85.005 63.15)"/><path d="M1265 1700c0 33.14-35.82 60-80 60s-80-26.86-80-60 35.82-60 80-60 80 26.86 80 60z" stroke="#5e5e5e" stroke-width="3" fill="#fff"/><use xlink:href="#h" transform="matrix(1,0,0,1,1105,1640) translate(27.104999999999997 63.15)"/><use xlink:href="#i" transform="matrix(1,0,0,1,1105,1640) translate(82.005 63.15)"/><path d="M720 1700c0 33.14-35.82 60-80 60s-80-26.86-80-60 35.82-60 80-60 80 26.86 80 60z" stroke="#5e5e5e" stroke-width="3" fill="#fff"/><use xlink:href="#j" transform="matrix(1,0,0,1,560,1640) translate(21.154999999999987 63.15)"/><use xlink:href="#i" transform="matrix(1,0,0,1,560,1640) translate(87.95500000000001 63.15)"/><path d="M835 2140c0 33.14-35.82 60-80 60s-80-26.86-80-60 35.82-60 80-60 80 26.86 80 60z" stroke="#5e5e5e" stroke-width="3" fill="#fff"/><use xlink:href="#k" transform="matrix(1,0,0,1,675,2080) translate(37.055 63.15)"/><use xlink:href="#l" transform="matrix(1,0,0,1,675,2080) translate(87.005 63.15)"/><path d="M1020 2320c0 33.14-35.82 60-80 60s-80-26.86-80-60 35.82-60 80-60 80 26.86 80 60z" stroke="#5e5e5e" stroke-width="3" fill="#fff"/><use xlink:href="#m" transform="matrix(1,0,0,1,860,2260) translate(40.404999999999994 63.15)"/><use xlink:href="#n" transform="matrix(1,0,0,1,860,2260) translate(83.35499999999999 63.15)"/><path d="M1180 2480c0 33.14-35.82 60-80 60s-80-26.86-80-60 35.82-60 80-60 80 26.86 80 60z" stroke="#5e5e5e" stroke-width="3" fill="#fff"/><use xlink:href="#o" transform="matrix(1,0,0,1,1020,2420) translate(41.605 63.15)"/><use xlink:href="#p" transform="matrix(1,0,0,1,1020,2420) translate(96.505 63.15)"/><path d="M840 2480c0 33.14-35.82 60-80 60s-80-26.86-80-60 35.82-60 80-60 80 26.86 80 60z" stroke="#5e5e5e" stroke-width="3" fill="#fff"/><use xlink:href="#o" transform="matrix(1,0,0,1,680,2420) translate(34.105 63.15)"/><use xlink:href="#q" transform="matrix(1,0,0,1,680,2420) translate(89.005 63.15)"/><path d="M1020 2680c0 33.14-35.82 60-80 60s-80-26.86-80-60 35.82-60 80-60 80 26.86 80 60z" stroke="#5e5e5e" stroke-width="3" fill="#fff"/><use xlink:href="#r" transform="matrix(1,0,0,1,860,2620) translate(12.404999999999996 63.15)"/><use xlink:href="#n" transform="matrix(1,0,0,1,860,2620) translate(111.355 63.15)"/><path d="M1060 1940c0 33.14-35.82 60-80 60s-80-26.86-80-60 35.82-60 80-60 80 26.86 80 60z" stroke="#5e5e5e" stroke-width="3" fill="#fff"/><use xlink:href="#s" transform="matrix(1,0,0,1,900,1880) translate(60.005 63.15)"/><path d="M1500 1940c0 33.14-35.82 60-80 60s-80-26.86-80-60 35.82-60 80-60 80 26.86 80 60z" stroke="#5e5e5e" stroke-width="3" fill="#fff"/><use xlink:href="#t" transform="matrix(1,0,0,1,1340,1880) translate(60.555 63.15)"/><path d="M2613.33 1357.78c0 20.86-16.9 37.78-37.77 37.78-20.87 0-37.78-16.92-37.78-37.78 0-20.87 16.9-37.78 37.78-37.78 20.86 0 37.77 16.9 37.77 37.78z" stroke="#5e5e5e" stroke-width="3" fill="#fff"/><path d="M2575.56 1395.56v109.24c0 3.3 1.37 8.3 3.06 11.16l72.5 122.04m-75.56-127.2L2500 1638m0-204.67h151.1" stroke="#5e5e5e" stroke-width="3" fill="none"/><path d="M2500 1326c0-3.3 2.7-6 6-6h139.1c3.32 0 6 2.7 6 6v328c0 3.3-2.68 6-6 6H2506c-3.3 0-6-2.7-6-6z" fill="none"/><use xlink:href="#u" transform="matrix(1,0,0,1,2420,1638) translate(52.450617283950635 17.77777777777778)"/><use xlink:href="#v" transform="matrix(1,0,0,1,2420,1638) translate(199.179012345679 17.77777777777778)"/><path d="M980 1080c0 33.14-35.82 60-80 60s-80-26.86-80-60 35.82-60 80-60 80 26.86 80 60z" stroke="#5e5e5e" stroke-width="3" fill="#fff"/><use xlink:href="#w" transform="matrix(1,0,0,1,820,1020) translate(32.07999999999999 63.15)"/><use xlink:href="#x" transform="matrix(1,0,0,1,820,1020) translate(80.03 63.15)"/><path d="M900 582.5V740" stroke="#5e5e5e" stroke-width="2" fill="none"/><path d="M899.98 581.5H901v1.03h-2v-1.06z" fill="#5e5e5e"/><path d="M900 755.26L895.36 741h9.28z" stroke="#5e5e5e" stroke-width="2" fill="#5e5e5e"/><path d="M900 882.5V1000" stroke="#5e5e5e" stroke-width="2" fill="none"/><path d="M899.98 881.5H901v1.03h-2v-1.06z" fill="#5e5e5e"/><path d="M900 1015.26l-4.64-14.26h9.28z" stroke="#5e5e5e" stroke-width="2" fill="#5e5e5e"/><path d="M900 1142.5V1420" stroke="#5e5e5e" stroke-width="2" fill="none"/><path d="M899.98 1141.5H901v1.03h-2v-1.06z" fill="#5e5e5e"/><path d="M900 1435.26l-4.64-14.26h9.28z" stroke="#5e5e5e" stroke-width="2" fill="#5e5e5e"/><path d="M900 1562.5v31.5c0 3.3-2.7 6-6 6H646c-3.3 0-6 2.7-6 6v14" stroke="#5e5e5e" stroke-width="2" fill="none"/><path d="M899.98 1561.5H901v1.03h-2v-1.06z" fill="#5e5e5e"/><path d="M640 1635.26l-4.64-14.26h9.28z" stroke="#5e5e5e" stroke-width="2" fill="#5e5e5e"/><path d="M923.92 1559.76v32.87c0 3.3 2.7 6 6 6H1179c3.3 0 6 2.7 6 6V1620" stroke="#5e5e5e" stroke-width="2" fill="none"/><path d="M924.92 1559.8h-2v-.8l2-.47z" fill="#5e5e5e"/><path d="M1185 1635.26l-4.64-14.26h9.28z" stroke="#5e5e5e" stroke-width="2" fill="#5e5e5e"/><path d="M1185 1762.5v51.5c0 3.3-2.7 6-6 6H986c-3.3 0-6 2.7-6 6v34" stroke="#5e5e5e" stroke-width="2" fill="none"/><path d="M1184.98 1761.5h1.02v1.03h-2v-1.06z" fill="#5e5e5e"/><path d="M980 1875.26l-4.64-14.26h9.28z" stroke="#5e5e5e" stroke-width="2" fill="#5e5e5e"/><path d="M1204.62 1760.68v52.4c0 3.32 2.7 6 6 6H1414c3.3 0 6 2.7 6 6V1860" stroke="#5e5e5e" stroke-width="2" fill="none"/><path d="M1205.62 1760.7h-2v-.86l2-.33z" fill="#5e5e5e"/><path d="M1420 1875.26l-4.64-14.26h9.28z" stroke="#5e5e5e" stroke-width="2" fill="#5e5e5e"/><path d="M640 1762.5V1914c0 3.3 2.7 6 6 6h103c3.3 0 6 2.7 6 6v134" stroke="#5e5e5e" stroke-width="2" fill="none"/><path d="M639.98 1761.5H641v1.03h-2v-1.06z" fill="#5e5e5e"/><path d="M755 2075.26l-4.64-14.26h9.28z" stroke="#5e5e5e" stroke-width="2" fill="#5e5e5e"/><path d="M980 2002.5v107.34c0 3.3-2.7 6-6 6H848.47" stroke="#5e5e5e" stroke-width="2" fill="none"/><path d="M979.98 2001.5H981v1.03h-2v-1.06z" fill="#5e5e5e"/><path d="M833.2 2115.84l14.27-4.64v9.27z" stroke="#5e5e5e" stroke-width="2" fill="#5e5e5e"/><path d="M755 2202.5v21.5c0 3.3 2.7 6 6 6h173c3.3 0 6 2.7 6 6v4" stroke="#5e5e5e" stroke-width="2" fill="none"/><path d="M754.98 2201.5H756v1.03h-2v-1.06z" fill="#5e5e5e"/><path d="M940 2255.26l-4.64-14.26h9.28z" stroke="#5e5e5e" stroke-width="2" fill="#5e5e5e"/><path d="M1186.63 2481h-4.13v-2h4.13zm16.5 0h-8.25v-2h8.25zm19.37-6.87l-.92 3.42-2.53 2.53-3.42.92h-4.25v-2h4l2.63-.7 1.8-1.8.7-2.63v-3.98h2zm0-12.46h-2v-8.23h2zm0-16.45h-2V2437h2zm0-16.44h-2v-8.22h2zm0-16.45h-2v-8.22h2zm0-37.7h-2v-3.4h2zm0-11.63h-2v-8.22h2zm0-16.44h-2v-8.23h2zm-3.45-26.64l2.53 2.53.92 3.42v4.24h-2v-3.97l-.7-2.64-1.8-1.8-2.63-.7h-3.86v-2h4.13zm-15.52 1.08h-7.97v-2h7.97zm-15.95 0h-7.98v-2h7.98zm-15.95 0h-7.98v-2h7.98zm-15.96 0h-7.98v-2h7.97zm-15.95 0h-7.98v-2h7.98zm-15.96 0h-7.97v-2h7.96zm-15.95 0h-7.97v-2h7.98zm-15.95 0h-7.97v-2h7.97zm-15.95 0h-7.98v-2h7.98zm-15.96 0h-7.97v-2h7.97zm-15.95 0h-4v-2h4z" fill="#5e5e5e"/><path d="M1182.53 2481h-1.06l.03-.98v-.43l-.02-.6h1.05zM1039 2324.64l-14.26-4.64 14.26-4.64z" fill="#5e5e5e"/><path d="M1040 2326l-18.5-6 18.5-6zm-12.03-6l10.03 3.26v-6.52z" fill="#5e5e5e"/><use xlink:href="#y" transform="matrix(1,0,0,1,1169.7222350921256,2374.6258218790645) translate(0 14.222222222222223)"/><path d="M940 2382.5v91.5c0 3.3 2.7 6 6 6h54" stroke="#5e5e5e" stroke-width="2" fill="none"/><path d="M939.98 2381.5H941v1.03h-2v-1.06z" fill="#5e5e5e"/><path d="M1015.26 2480l-14.26 4.64v-9.28z" stroke="#5e5e5e" stroke-width="2" fill="#5e5e5e"/><path d="M922.74 2381.07V2474c0 3.3-2.7 6-6 6H860" stroke="#5e5e5e" stroke-width="2" fill="none"/><path d="M923.74 2380.23v.87h-2v-1.2z" fill="#5e5e5e"/><path d="M844.74 2480l14.26-4.64v9.28z" stroke="#5e5e5e" stroke-width="2" fill="#5e5e5e"/><path d="M760 2542.5v31.5c0 3.3 2.7 6 6 6h168c3.3 0 6 2.7 6 6v14" stroke="#5e5e5e" stroke-width="2" fill="none"/><path d="M759.98 2541.5H761v1.03h-2v-1.06z" fill="#5e5e5e"/><path d="M940 2615.26l-4.64-14.26h9.28z" stroke="#5e5e5e" stroke-width="2" fill="#5e5e5e"/><path d="M1044.5 2681h-4.5v-2h4.5zm18 0h-9v-2h9zm18 0h-9v-2h9zm20.5-6.87l-.92 3.42-2.53 2.53-3.42.92h-4.63v-2h4.37l2.64-.7 1.8-1.8.7-2.63v-3.98h2zm0-12.46h-2v-8.22h2zm0-16.44h-2v-.12h2zm0-21.45h-2v-3.2h2zm0-11.42h-2v-8.22h2zm0-16.44h-2v-8.22h2zm0-16.44h-2v-8.2h2zm0-16.43h-2v-8.22h2zm0-16.44h-2v-4.1h2zM1039 2684.64l-14.26-4.64 14.26-4.64z" fill="#5e5e5e"/><path d="M1040 2686l-18.5-6 18.5-6zm-12.03-6l10.03 3.26v-6.52zM1099.98 2541.5h.95l.07 1.03h-2v-1.06z" fill="#5e5e5e"/><use xlink:href="#z" transform="matrix(1,0,0,1,1050.6913580246915,2623.7771983840053) translate(0 14.222222222222223)"/><path d="M840 2681h-4.07v-2H840zm-12.22 0h-8.15v-2h8.15zm-16.3 0h-8.14v-2h8.15zm-16.28 0h-8.15v-2h8.15zm-16.3 0h-8.14v-2h8.14zm-16.3 0h-8.13v-2h8.14zm-16.28 0h-8.14v-2h8.14zm-16.3 0h-8.14v-2h8.15zm-16.28 0h-8.15v-2h8.14zm-16.3 0h-8.14v-2h8.15zm-16.28 0H673v-2h8.16zm-16.3 0h-8.14v-2h8.14zm-25.36-7.13l.7 2.64 1.8 1.8 2.63.7h3.94v2h-4.2l-3.42-.92-2.53-2.53-.92-3.42v-4.05h2zm0-11.62h-2v-7.83h2zm0-15.67h-2v-7.83h2zm0-15.66h-2v-3h2zm0-31.34h-2v-7.83h2zm0-15.66h-2v-7.84h2zm0-15.67h-2v-7.83h2zm0-15.67h-2v-7.83h2zm0-15.66h-2v-7.84h2zm0-15.67h-2v-7.83h2zm0-15.67h-2v-7.83h2zm9.12-24.58h-4l-2.63.7-1.8 1.8-.7 2.63v3.8h-2v-4.06l.92-3.42 2.53-2.53 3.42-.92h4.25zm16.5 0h-8.25v-2h8.25zm12.38 0h-4.13v-2h4.13zM855.26 2680l-14.26 4.64v-9.28z" fill="#5e5e5e"/><path d="M858.5 2680l-18.5 6v-12zm-16.5 3.26l10.03-3.26-10.03-3.26zM678.5 2479.98v.43l.02.6h-1.05v-2h1.06z" fill="#5e5e5e"/><use xlink:href="#z" transform="matrix(1,0,0,1,589.191345154788,2606.5943448319404) translate(0 14.222222222222223)"/><path d="M1420 2002.5V2134c0 3.3-2.7 6-6 6H855" stroke="#5e5e5e" stroke-width="2" fill="none"/><path d="M1419.98 2001.5h1.02v1.03h-2v-1.06z" fill="#5e5e5e"/><path d="M839.74 2140l14.26-4.64v9.28z" stroke="#5e5e5e" stroke-width="2" fill="#5e5e5e"/><path d="M817.5 521H146.13l-2.64.7-1.8 1.8-.7 2.63v966.74l-.92 3.4-2.53 2.54-3.42.94h-507.2v-2h506.94l2.64-.72 1.8-1.77.7-2.65V525.87l.92-3.42 2.53-2.53 3.42-.92H817.5z" fill="#5e5e5e"/><path d="M-373.03 1499.74h-4.03v-2h4.03zM818.5 519.98v.43l.02.6h-1.05v-2h1.06z" fill="#5e5e5e"/><path d="M817.5 821H146.13l-2.64.7-1.8 1.8-.7 2.63v666.74l-.92 3.4-2.53 2.54-3.42.94h-507.2v-2h506.94l2.64-.72 1.8-1.77.7-2.65V825.87l.92-3.42 2.53-2.53 3.42-.92H817.5z" fill="#5e5e5e"/><path d="M-373.03 1499.74h-4.03v-2h4.03zM818.5 819.98v.43l.02.6h-1.05v-2h1.06zM534.8 1657.98l.73 2.64 1.77 1.78 2.65.7h4v2h-4.27l-3.4-.9-2.54-2.54-.93-3.42v-4.1h2zm25.64 7.13h-8.25v-2h8.24zm12.37 0h-4.1v-2h4.1zm-38-18.9h-2v-7.95h2zm0-15.9h-2v-7.95h2zm0-15.9h-2v-7.94h2zm0-15.88h-2v-7.95h2zm0-15.9h-2v-7.94h2zm0-15.9h-2v-7.93h2zm0-15.88h-2v-7.95h2zm0-15.9h-2V1527h2zm0-15.88h-2v-7.95h2zm0-15.9h-2v-7.94h2zm0-15.9h-2v-7.93h2zm0-15.88h-2v-7.95h2zm0-15.9h-2v-7.94h2zm0-15.88h-2v-7.95h2zm0-15.9h-2v-7.94h2zm0-15.9h-2v-7.93h2zm0-15.88h-2v-7.95h2zm0-15.9h-2v-7.94h2zm0-15.88h-2v-7.95h2zm0-15.9h-2v-4.46h2zm0-31.78h-2v-7.95h2zm0-15.9h-2v-7.94h2zm0-15.88h-2v-7.95h2zm0-15.9h-2v-7.94h2zm0-15.9h-2v-7.93h2zm0-15.88h-2v-7.95h2zm0-15.9h-2v-7.94h2zm0-15.88h-2v-7.95h2zm0-15.9h-2v-7.94h2zm0-15.9h-2v-7.93h2zm0-15.88h-2v-7.95h2zm0-15.9h-2v-7.94h2zm0-15.88h-2v-7.95h2zm0-15.9h-2v-7.94h2zm9.08-24.86h-3.93l-2.65.7-1.77 1.8-.72 2.63v3.84h-2v-4.1l.94-3.42 2.53-2.53 3.4-.92h4.2zm256.12 0h-4.07v-2H800zm-12.2 0h-8.13v-2h8.13zm-16.26 0h-8.13v-2h8.14zm-16.26 0h-8.13v-2h8.13zm-16.26 0h-8.13v-2H739zm-16.26 0h-8.13v-2h8.13zm-16.27 0h-8.14v-2h8.13zm-16.27 0h-8.13v-2h8.13zm-16.26 0h-8.13v-2h8.13zm-16.26 0h-8.12v-2h8.13zm-16.25 0h-8.13v-2h8.13zm-16.26 0h-8.14v-2h8.13zm-16.27 0h-8.13v-2h8.13zm-16.27 0h-8.13v-2h8.13zm-16.26 0h-8.13v-2h8.13zm-16.26 0H552v-2h8.14zM815.26 1080l-14.26 4.64v-9.28z" fill="#5e5e5e"/><path d="M818.5 1080l-18.5 6v-12zm-16.5 3.26l10.03-3.26-10.03-3.26zM573.28 1664.65l-.4.46-.1-2h2.03z" fill="#5e5e5e"/><use xlink:href="#z" transform="matrix(1,0,0,1,484.50588304358496,1318.4483295032821) translate(0 14.222222222222223)"/><path d="M2573.06 1478.74h-865.13c-3.3 0-6 2.7-6 6v673.7c0 3.3-2.7 6-6 6H830.8M2573.03 1478.74h4.03" stroke="#5e5e5e" stroke-width="2" fill="none"/><path d="M830.83 2165.43h-1.6l1.14-1.98.02-.02h.43z" fill="#5e5e5e"/><path d="M2573.06 1478.74H1706c-3.3 0-6 2.7-6 6v766.3c0 3.32-2.7 6-6 6h-687.2c-3.32 0-6 2.7-6 6v15M2573.03 1478.74h4.03" stroke="#5e5e5e" stroke-width="2" fill="none"/><path d="M1001.8 2279.92l-1.76-1.53-.25-.2v-.18h2zM2573.06 1479.74h-866.93l-2.64.72-1.8 1.78-.7 2.64v1024.84l-.92 3.4-2.53 2.54-3.42.92H1167.5v-2h526.37l2.64-.7 1.8-1.8.7-2.63V1484.6l.92-3.4 2.53-2.53 3.42-.93h867.2z" fill="#5e5e5e"/><path d="M2577.06 1479.74h-4.03v-2h4.03zM1167.5 2516.58h-2l1.22-1.23.67-.77h.1zM841.94 994.98l2.53 2.53.92 3.43v33.13h-2v-32.87l-.72-2.65-1.78-1.78-2.64-.7H146.13l-2.64.7-1.8 1.78-.7 2.64v491.67l-.92 3.4-2.53 2.54-3.42.94h-507.2v-2h506.94l2.64-.72 1.8-1.77.7-2.65v-491.67l.92-3.42 2.53-2.52 3.42-.92h692.66z" fill="#5e5e5e"/><path d="M-373.03 1499.74h-4.03v-2h4.03zM845.4 1034.37l-2 1.38v-1.72h2z" fill="#5e5e5e"/><path d="M-373.06 1498.74h1190.6M-373.03 1498.74h-4.03" stroke="#5e5e5e" stroke-width="2" fill="none"/><path d="M818.5 1499.74h-1v-2h1.07z" fill="#5e5e5e"/><path d="M-373.06 1498.74H134c3.3 0 6 2.68 6 6V1694c0 3.3 2.7 6 6 6h411.5M-373.03 1498.74h-4.03" stroke="#5e5e5e" stroke-width="2" fill="none"/><path d="M558.5 1699.98v.43l.02.6h-1.05v-2h1.06z" fill="#5e5e5e"/><path d="M-373.06 1498.74H134c3.3 0 6 2.68 6 6V2134c0 3.3 2.7 6 6 6h526.5M-373.03 1498.74h-4.03" stroke="#5e5e5e" stroke-width="2" fill="none"/><path d="M673.5 2139.98v.43l.02.6h-1.05v-2h1.06z" fill="#5e5e5e"/><path d="M-373.06 1498.74H134c3.3 0 6 2.68 6 6v948.38c0 3.32 2.7 6 6 6h536.32M-373.03 1498.74h-4.03" stroke="#5e5e5e" stroke-width="2" fill="none"/><path d="M683.13 2459.5l-.27.62h-.57v-2h1.53z" fill="#5e5e5e"/><defs><path fill="#333" d="M205 0l-28-72H64L36 0H1l101-248h38L239 0h-34zm-38-99l-47-123c-12 45-31 82-46 123h93" id="A"/><path fill="#333" d="M96-169c-40 0-48 33-48 73s9 75 48 75c24 0 41-14 43-38l32 2c-6 37-31 61-74 61-59 0-76-41-82-99-10-93 101-131 147-64 4 7 5 14 7 22l-32 3c-4-21-16-35-41-35" id="B"/><path fill="#333" d="M59-47c-2 24 18 29 38 22v24C64 9 27 4 27-40v-127H5v-23h24l9-43h21v43h35v23H59v120" id="C"/><path fill="#333" d="M100-194c62-1 85 37 85 99 1 63-27 99-86 99S16-35 15-95c0-66 28-99 85-99zM99-20c44 1 53-31 53-75 0-43-8-75-51-75s-53 32-53 75 10 74 51 75" id="D"/><path fill="#333" d="M114-163C36-179 61-72 57 0H25l-1-190h30c1 12-1 29 2 39 6-27 23-49 58-41v29" id="E"/><g id="a"><use transform="matrix(0.06172839506172839,0,0,0.06172839506172839,0,0)" xlink:href="#A"/><use transform="matrix(0.06172839506172839,0,0,0.06172839506172839,14.814814814814813,0)" xlink:href="#B"/><use transform="matrix(0.06172839506172839,0,0,0.06172839506172839,25.925925925925924,0)" xlink:href="#C"/><use transform="matrix(0.06172839506172839,0,0,0.06172839506172839,32.098765432098766,0)" xlink:href="#D"/><use transform="matrix(0.06172839506172839,0,0,0.06172839506172839,44.44444444444444,0)" xlink:href="#E"/></g><path fill="#333" d="M160-131c35 5 61 23 61 61C221 17 115-2 30 0v-248c76 3 177-17 177 60 0 33-19 50-47 57zm-97-11c50-1 110 9 110-42 0-47-63-36-110-37v79zm0 115c55-2 124 14 124-45 0-56-70-42-124-44v89" id="F"/><path fill="#333" d="M141-36C126-15 110 5 73 4 37 3 15-17 15-53c-1-64 63-63 125-63 3-35-9-54-41-54-24 1-41 7-42 31l-33-3c5-37 33-52 76-52 45 0 72 20 72 64v82c-1 20 7 32 28 27v20c-31 9-61-2-59-35zM48-53c0 20 12 33 32 33 41-3 63-29 60-74-43 2-92-5-92 41" id="G"/><path fill="#333" d="M24 0v-261h32V0H24" id="H"/><path fill="#333" d="M100-194c63 0 86 42 84 106H49c0 40 14 67 53 68 26 1 43-12 49-29l28 8c-11 28-37 45-77 45C44 4 14-33 15-96c1-61 26-98 85-98zm52 81c6-60-76-77-97-28-3 7-6 17-6 28h103" id="I"/><path fill="#333" d="M185-189c-5-48-123-54-124 2 14 75 158 14 163 119 3 78-121 87-175 55-17-10-28-26-33-46l33-7c5 56 141 63 141-1 0-78-155-14-162-118-5-82 145-84 179-34 5 7 8 16 11 25" id="J"/><path fill="#333" d="M106-169C34-169 62-67 57 0H25v-261h32l-1 103c12-21 28-36 61-36 89 0 53 116 60 194h-32v-121c2-32-8-49-39-48" id="K"/><path fill="#333" d="M24-231v-30h32v30H24zM24 0v-190h32V0H24" id="L"/><path fill="#333" d="M115-194c55 1 70 41 70 98S169 2 115 4C84 4 66-9 55-30l1 105H24l-1-265h31l2 30c10-21 28-34 59-34zm-8 174c40 0 45-34 45-75s-6-73-45-74c-42 0-51 32-51 76 0 43 10 73 51 73" id="M"/><g id="b"><use transform="matrix(0.06172839506172839,0,0,0.06172839506172839,0,0)" xlink:href="#F"/><use transform="matrix(0.06172839506172839,0,0,0.06172839506172839,14.814814814814813,0)" xlink:href="#G"/><use transform="matrix(0.06172839506172839,0,0,0.06172839506172839,27.160493827160494,0)" xlink:href="#C"/><use transform="matrix(0.06172839506172839,0,0,0.06172839506172839,33.333333333333336,0)" xlink:href="#C"/><use transform="matrix(0.06172839506172839,0,0,0.06172839506172839,39.50617283950618,0)" xlink:href="#H"/><use transform="matrix(0.06172839506172839,0,0,0.06172839506172839,44.38271604938272,0)" xlink:href="#I"/><use transform="matrix(0.06172839506172839,0,0,0.06172839506172839,56.7283950617284,0)" xlink:href="#J"/><use transform="matrix(0.06172839506172839,0,0,0.06172839506172839,71.54320987654322,0)" xlink:href="#K"/><use transform="matrix(0.06172839506172839,0,0,0.06172839506172839,83.8888888888889,0)" xlink:href="#L"/><use transform="matrix(0.06172839506172839,0,0,0.06172839506172839,88.76543209876544,0)" xlink:href="#M"/></g><path d="M185-189c-5-48-123-54-124 2 14 75 158 14 163 119 3 78-121 87-175 55-17-10-28-26-33-46l33-7c5 56 141 63 141-1 0-78-155-14-162-118-5-82 145-84 179-34 5 7 8 16 11 25" id="N"/><path d="M59-47c-2 24 18 29 38 22v24C64 9 27 4 27-40v-127H5v-23h24l9-43h21v43h35v23H59v120" id="O"/><path d="M141-36C126-15 110 5 73 4 37 3 15-17 15-53c-1-64 63-63 125-63 3-35-9-54-41-54-24 1-41 7-42 31l-33-3c5-37 33-52 76-52 45 0 72 20 72 64v82c-1 20 7 32 28 27v20c-31 9-61-2-59-35zM48-53c0 20 12 33 32 33 41-3 63-29 60-74-43 2-92-5-92 41" id="P"/><path d="M114-163C36-179 61-72 57 0H25l-1-190h30c1 12-1 29 2 39 6-27 23-49 58-41v29" id="Q"/><g id="c"><use transform="matrix(0.05,0,0,0.05,0,0)" xlink:href="#N"/><use transform="matrix(0.05,0,0,0.05,12,0)" xlink:href="#O"/><use transform="matrix(0.05,0,0,0.05,17,0)" xlink:href="#P"/><use transform="matrix(0.05,0,0,0.05,27,0)" xlink:href="#Q"/><use transform="matrix(0.05,0,0,0.05,32.95,0)" xlink:href="#O"/></g><path d="M143 4C61 4 22-44 18-125c-5-107 100-154 193-111 17 8 29 25 37 43l-32 9c-13-25-37-40-76-40-61 0-88 39-88 99 0 61 29 100 91 101 35 0 62-11 79-27v-45h-74v-28h105v86C228-13 192 4 143 4" id="R"/><path d="M210-169c-67 3-38 105-44 169h-31v-121c0-29-5-50-35-48C34-165 62-65 56 0H25l-1-190h30c1 10-1 24 2 32 10-44 99-50 107 0 11-21 27-35 58-36 85-2 47 119 55 194h-31v-121c0-29-5-49-35-48" id="S"/><path d="M100-194c63 0 86 42 84 106H49c0 40 14 67 53 68 26 1 43-12 49-29l28 8c-11 28-37 45-77 45C44 4 14-33 15-96c1-61 26-98 85-98zm52 81c6-60-76-77-97-28-3 7-6 17-6 28h103" id="T"/><g id="d"><use transform="matrix(0.05,0,0,0.05,0,0)" xlink:href="#R"/><use transform="matrix(0.05,0,0,0.05,14,0)" xlink:href="#P"/><use transform="matrix(0.05,0,0,0.05,24,0)" xlink:href="#S"/><use transform="matrix(0.05,0,0,0.05,38.95,0)" xlink:href="#T"/></g><path d="M190 0L58-211 59 0H30v-248h39L202-35l-2-213h31V0h-41" id="U"/><path d="M206 0h-36l-40-164L89 0H53L-1-190h32L70-26l43-164h34l41 164 42-164h31" id="V"/><g id="e"><use transform="matrix(0.05,0,0,0.05,0,0)" xlink:href="#U"/><use transform="matrix(0.05,0,0,0.05,12.950000000000001,0)" xlink:href="#T"/><use transform="matrix(0.05,0,0,0.05,22.950000000000003,0)" xlink:href="#V"/></g><path d="M24 0v-261h32V0H24" id="W"/><path d="M96-169c-40 0-48 33-48 73s9 75 48 75c24 0 41-14 43-38l32 2c-6 37-31 61-74 61-59 0-76-41-82-99-10-93 101-131 147-64 4 7 5 14 7 22l-32 3c-4-21-16-35-41-35" id="X"/><g id="f"><use transform="matrix(0.05,0,0,0.05,0,0)" xlink:href="#N"/><use transform="matrix(0.05,0,0,0.05,12,0)" xlink:href="#T"/><use transform="matrix(0.05,0,0,0.05,22,0)" xlink:href="#W"/><use transform="matrix(0.05,0,0,0.05,25.950000000000003,0)" xlink:href="#T"/><use transform="matrix(0.05,0,0,0.05,35.95,0)" xlink:href="#X"/><use transform="matrix(0.05,0,0,0.05,44.95,0)" xlink:href="#O"/></g><path d="M240 0l2-218c-23 76-54 145-80 218h-23L58-218 59 0H30v-248h44l77 211c21-75 51-140 76-211h43V0h-30" id="Y"/><path d="M100-194c62-1 85 37 85 99 1 63-27 99-86 99S16-35 15-95c0-66 28-99 85-99zM99-20c44 1 53-31 53-75 0-43-8-75-51-75s-53 32-53 75 10 74 51 75" id="Z"/><path d="M85-194c31 0 48 13 60 33l-1-100h32l1 261h-30c-2-10 0-23-3-31C134-8 116 4 85 4 32 4 16-35 15-94c0-66 23-100 70-100zm9 24c-40 0-46 34-46 75 0 40 6 74 45 74 42 0 51-32 51-76 0-42-9-74-50-73" id="aa"/><g id="g"><use transform="matrix(0.05,0,0,0.05,0,0)" xlink:href="#Y"/><use transform="matrix(0.05,0,0,0.05,14.950000000000001,0)" xlink:href="#Z"/><use transform="matrix(0.05,0,0,0.05,24.950000000000003,0)" xlink:href="#aa"/><use transform="matrix(0.05,0,0,0.05,34.95,0)" xlink:href="#T"/></g><path d="M24-231v-30h32v30H24zM24 0v-190h32V0H24" id="ab"/><path d="M117-194c89-4 53 116 60 194h-32v-121c0-31-8-49-39-48C34-167 62-67 57 0H25l-1-190h30c1 10-1 24 2 32 11-22 29-35 61-36" id="ac"/><path d="M177-190C167-65 218 103 67 71c-23-6-38-20-44-43l32-5c15 47 100 32 89-28v-30C133-14 115 1 83 1 29 1 15-40 15-95c0-56 16-97 71-98 29-1 48 16 59 35 1-10 0-23 2-32h30zM94-22c36 0 50-32 50-73 0-42-14-75-50-75-39 0-46 34-46 75s6 73 46 73" id="ad"/><g id="h"><use transform="matrix(0.05,0,0,0.05,0,0)" xlink:href="#N"/><use transform="matrix(0.05,0,0,0.05,12,0)" xlink:href="#ab"/><use transform="matrix(0.05,0,0,0.05,15.949999999999998,0)" xlink:href="#ac"/><use transform="matrix(0.05,0,0,0.05,25.950000000000003,0)" xlink:href="#ad"/><use transform="matrix(0.05,0,0,0.05,35.95,0)" xlink:href="#W"/><use transform="matrix(0.05,0,0,0.05,39.900000000000006,0)" xlink:href="#T"/></g><path d="M30-248c87 1 191-15 191 75 0 78-77 80-158 76V0H30v-248zm33 125c57 0 124 11 124-50 0-59-68-47-124-48v98" id="ae"/><path d="M179-190L93 31C79 59 56 82 12 73V49c39 6 53-20 64-50L1-190h34L92-34l54-156h33" id="af"/><g id="i"><use transform="matrix(0.05,0,0,0.05,0,0)" xlink:href="#ae"/><use transform="matrix(0.05,0,0,0.05,12,0)" xlink:href="#W"/><use transform="matrix(0.05,0,0,0.05,15.949999999999998,0)" xlink:href="#P"/><use transform="matrix(0.05,0,0,0.05,25.950000000000003,0)" xlink:href="#af"/><use transform="matrix(0.05,0,0,0.05,34.95,0)" xlink:href="#T"/><use transform="matrix(0.05,0,0,0.05,44.95,0)" xlink:href="#Q"/></g><path d="M84 4C-5 8 30-112 23-190h32v120c0 31 7 50 39 49 72-2 45-101 50-169h31l1 190h-30c-1-10 1-25-2-33-11 22-28 36-60 37" id="ag"/><path d="M115-194c55 1 70 41 70 98S169 2 115 4C84 4 66-9 55-30l1 105H24l-1-265h31l2 30c10-21 28-34 59-34zm-8 174c40 0 45-34 45-75s-6-73-45-74c-42 0-51 32-51 76 0 43 10 73 51 73" id="ah"/><g id="j"><use transform="matrix(0.05,0,0,0.05,0,0)" xlink:href="#Y"/><use transform="matrix(0.05,0,0,0.05,14.950000000000001,0)" xlink:href="#ag"/><use transform="matrix(0.05,0,0,0.05,24.950000000000003,0)" xlink:href="#W"/><use transform="matrix(0.05,0,0,0.05,28.900000000000002,0)" xlink:href="#O"/><use transform="matrix(0.05,0,0,0.05,33.900000000000006,0)" xlink:href="#ab"/><use transform="matrix(0.05,0,0,0.05,37.85000000000001,0)" xlink:href="#ah"/><use transform="matrix(0.05,0,0,0.05,47.85000000000001,0)" xlink:href="#W"/><use transform="matrix(0.05,0,0,0.05,51.80000000000001,0)" xlink:href="#T"/></g><g id="k"><use transform="matrix(0.05,0,0,0.05,0,0)" xlink:href="#ae"/><use transform="matrix(0.05,0,0,0.05,12,0)" xlink:href="#W"/><use transform="matrix(0.05,0,0,0.05,15.949999999999998,0)" xlink:href="#P"/><use transform="matrix(0.05,0,0,0.05,25.950000000000003,0)" xlink:href="#X"/><use transform="matrix(0.05,0,0,0.05,34.95,0)" xlink:href="#T"/></g><path d="M106-169C34-169 62-67 57 0H25v-261h32l-1 103c12-21 28-36 61-36 89 0 53 116 60 194h-32v-121c2-32-8-49-39-48" id="ai"/><g id="l"><use transform="matrix(0.05,0,0,0.05,0,0)" xlink:href="#N"/><use transform="matrix(0.05,0,0,0.05,12,0)" xlink:href="#ai"/><use transform="matrix(0.05,0,0,0.05,22,0)" xlink:href="#ab"/><use transform="matrix(0.05,0,0,0.05,25.950000000000003,0)" xlink:href="#ah"/></g><path d="M127-220V0H93v-220H8v-28h204v28h-85" id="aj"/><path d="M143 0L79-87 56-68V0H24v-261h32v163l83-92h37l-77 82L181 0h-38" id="ak"/><g id="m"><use transform="matrix(0.05,0,0,0.05,0,0)" xlink:href="#aj"/><use transform="matrix(0.05,0,0,0.05,8.950000000000001,0)" xlink:href="#P"/><use transform="matrix(0.05,0,0,0.05,18.950000000000003,0)" xlink:href="#ak"/><use transform="matrix(0.05,0,0,0.05,27.950000000000003,0)" xlink:href="#T"/></g><g id="n"><use transform="matrix(0.05,0,0,0.05,0,0)" xlink:href="#aj"/><use transform="matrix(0.05,0,0,0.05,10.3,0)" xlink:href="#ag"/><use transform="matrix(0.05,0,0,0.05,20.3,0)" xlink:href="#Q"/><use transform="matrix(0.05,0,0,0.05,26.25,0)" xlink:href="#ac"/></g><g id="o"><use transform="matrix(0.05,0,0,0.05,0,0)" xlink:href="#aj"/><use transform="matrix(0.05,0,0,0.05,8.950000000000001,0)" xlink:href="#P"/><use transform="matrix(0.05,0,0,0.05,18.950000000000003,0)" xlink:href="#Q"/><use transform="matrix(0.05,0,0,0.05,24.900000000000002,0)" xlink:href="#ad"/><use transform="matrix(0.05,0,0,0.05,34.900000000000006,0)" xlink:href="#T"/><use transform="matrix(0.05,0,0,0.05,44.900000000000006,0)" xlink:href="#O"/></g><path d="M197 0v-115H63V0H30v-248h33v105h134v-105h34V0h-34" id="al"/><g id="p"><use transform="matrix(0.05,0,0,0.05,0,0)" xlink:href="#al"/><use transform="matrix(0.05,0,0,0.05,12.950000000000001,0)" xlink:href="#ab"/><use transform="matrix(0.05,0,0,0.05,16.900000000000002,0)" xlink:href="#O"/></g><path d="M135-143c-3-34-86-38-87 0 15 53 115 12 119 90S17 21 10-45l28-5c4 36 97 45 98 0-10-56-113-15-118-90-4-57 82-63 122-42 12 7 21 19 24 35" id="am"/><g id="q"><use transform="matrix(0.05,0,0,0.05,0,0)" xlink:href="#S"/><use transform="matrix(0.05,0,0,0.05,14.950000000000001,0)" xlink:href="#ab"/><use transform="matrix(0.05,0,0,0.05,18.900000000000002,0)" xlink:href="#am"/><use transform="matrix(0.05,0,0,0.05,27.900000000000002,0)" xlink:href="#am"/></g><path d="M140-251c81 0 123 46 123 126C263-46 219 4 140 4 59 4 17-45 17-125s42-126 123-126zm0 227c63 0 89-41 89-101s-29-99-89-99c-61 0-89 39-89 99S79-25 140-24" id="an"/><path d="M13-211c8-23 27-35 38-54h36v5l-58 49H13" id="ao"/><g id="r"><use transform="matrix(0.05,0,0,0.05,0,0)" xlink:href="#an"/><use transform="matrix(0.05,0,0,0.05,14,0)" xlink:href="#ah"/><use transform="matrix(0.05,0,0,0.05,24,0)" xlink:href="#ah"/><use transform="matrix(0.05,0,0,0.05,34,0)" xlink:href="#Z"/><use transform="matrix(0.05,0,0,0.05,44,0)" xlink:href="#ac"/><use transform="matrix(0.05,0,0,0.05,54,0)" xlink:href="#T"/><use transform="matrix(0.05,0,0,0.05,64,0)" xlink:href="#ac"/><use transform="matrix(0.05,0,0,0.05,74,0)" xlink:href="#O"/><use transform="matrix(0.05,0,0,0.05,79,0)" xlink:href="#ao"/><use transform="matrix(0.05,0,0,0.05,84.95,0)" xlink:href="#am"/></g><path d="M30 0v-248h187v28H63v79h144v27H63v87h162V0H30" id="ap"/><g id="s"><use transform="matrix(0.05,0,0,0.05,0,0)" xlink:href="#ap"/><use transform="matrix(0.05,0,0,0.05,12,0)" xlink:href="#P"/><use transform="matrix(0.05,0,0,0.05,22,0)" xlink:href="#am"/><use transform="matrix(0.05,0,0,0.05,31,0)" xlink:href="#af"/></g><g id="t"><use transform="matrix(0.05,0,0,0.05,0,0)" xlink:href="#al"/><use transform="matrix(0.05,0,0,0.05,12.950000000000001,0)" xlink:href="#P"/><use transform="matrix(0.05,0,0,0.05,22.950000000000003,0)" xlink:href="#Q"/><use transform="matrix(0.05,0,0,0.05,28.900000000000002,0)" xlink:href="#aa"/></g><path fill="#333" d="M212-179c-10-28-35-45-73-45-59 0-87 40-87 99 0 60 29 101 89 101 43 0 62-24 78-52l27 14C228-24 195 4 139 4 59 4 22-46 18-125c-6-104 99-153 187-111 19 9 31 26 39 46" id="aq"/><path fill="#333" d="M210-169c-67 3-38 105-44 169h-31v-121c0-29-5-50-35-48C34-165 62-65 56 0H25l-1-190h30c1 10-1 24 2 32 10-44 99-50 107 0 11-21 27-35 58-36 85-2 47 119 55 194h-31v-121c0-29-5-49-35-48" id="ar"/><path fill="#333" d="M84 4C-5 8 30-112 23-190h32v120c0 31 7 50 39 49 72-2 45-101 50-169h31l1 190h-30c-1-10 1-25-2-33-11 22-28 36-60 37" id="as"/><path fill="#333" d="M0 4l72-265h28L28 4H0" id="at"/><path fill="#333" d="M101-251c82-7 93 87 43 132L82-64C71-53 59-42 53-27h129V0H18c2-99 128-94 128-182 0-28-16-43-45-43s-46 15-49 41l-32-3c6-41 34-60 81-64" id="au"/><path fill="#333" d="M117-194c89-4 53 116 60 194h-32v-121c0-31-8-49-39-48C34-167 62-67 57 0H25l-1-190h30c1 10-1 24 2 32 11-22 29-35 61-36" id="av"/><path fill="#333" d="M85-194c31 0 48 13 60 33l-1-100h32l1 261h-30c-2-10 0-23-3-31C134-8 116 4 85 4 32 4 16-35 15-94c0-66 23-100 70-100zm9 24c-40 0-46 34-46 75 0 40 6 74 45 74 42 0 51-32 51-76 0-42-9-74-50-73" id="aw"/><g id="u"><use transform="matrix(0.06172839506172839,0,0,0.06172839506172839,0,0)" xlink:href="#aq"/><use transform="matrix(0.06172839506172839,0,0,0.06172839506172839,15.987654320987653,0)" xlink:href="#D"/><use transform="matrix(0.06172839506172839,0,0,0.06172839506172839,28.333333333333332,0)" xlink:href="#ar"/><use transform="matrix(0.06172839506172839,0,0,0.06172839506172839,46.79012345679012,0)" xlink:href="#M"/><use transform="matrix(0.06172839506172839,0,0,0.06172839506172839,59.1358024691358,0)" xlink:href="#as"/><use transform="matrix(0.06172839506172839,0,0,0.06172839506172839,71.48148148148148,0)" xlink:href="#C"/><use transform="matrix(0.06172839506172839,0,0,0.06172839506172839,77.65432098765432,0)" xlink:href="#I"/><use transform="matrix(0.06172839506172839,0,0,0.06172839506172839,90,0)" xlink:href="#E"/><use transform="matrix(0.06172839506172839,0,0,0.06172839506172839,97.34567901234568,0)" xlink:href="#at"/><use transform="matrix(0.06172839506172839,0,0,0.06172839506172839,103.51851851851852,0)" xlink:href="#au"/><use transform="matrix(0.06172839506172839,0,0,0.06172839506172839,115.8641975308642,0)" xlink:href="#av"/><use transform="matrix(0.06172839506172839,0,0,0.06172839506172839,128.20987654320987,0)" xlink:href="#aw"/></g><path fill="#333" d="M179-190L93 31C79 59 56 82 12 73V49c39 6 53-20 64-50L1-190h34L92-34l54-156h33" id="ax"/><g id="v"><use transform="matrix(0.06172839506172839,0,0,0.06172839506172839,0,0)" xlink:href="#M"/><use transform="matrix(0.06172839506172839,0,0,0.06172839506172839,12.345679012345679,0)" xlink:href="#H"/><use transform="matrix(0.06172839506172839,0,0,0.06172839506172839,17.22222222222222,0)" xlink:href="#G"/><use transform="matrix(0.06172839506172839,0,0,0.06172839506172839,29.5679012345679,0)" xlink:href="#ax"/><use transform="matrix(0.06172839506172839,0,0,0.06172839506172839,40.67901234567901,0)" xlink:href="#I"/><use transform="matrix(0.06172839506172839,0,0,0.06172839506172839,53.02469135802469,0)" xlink:href="#E"/></g><g id="w"><use transform="matrix(0.05,0,0,0.05,0,0)" xlink:href="#ap"/><use transform="matrix(0.05,0,0,0.05,12,0)" xlink:href="#ac"/><use transform="matrix(0.05,0,0,0.05,22,0)" xlink:href="#O"/><use transform="matrix(0.05,0,0,0.05,27,0)" xlink:href="#T"/><use transform="matrix(0.05,0,0,0.05,37,0)" xlink:href="#Q"/></g><g id="x"><use transform="matrix(0.05,0,0,0.05,0,0)" xlink:href="#U"/><use transform="matrix(0.05,0,0,0.05,12.950000000000001,0)" xlink:href="#P"/><use transform="matrix(0.05,0,0,0.05,22.950000000000003,0)" xlink:href="#S"/><use transform="matrix(0.05,0,0,0.05,37.900000000000006,0)" xlink:href="#T"/></g><path fill="#333" d="M15-91v-56l181-69v40L49-119l147 57v40" id="ay"/><path fill="#333" d="M25-224v-37h50v37H25zM25 0v-190h50V0H25" id="az"/><path fill="#333" d="M135-194c87-1 58 113 63 194h-50c-7-57 23-157-34-157-59 0-34 97-39 157H25l-1-190h47c2 12-1 28 3 38 12-26 28-41 61-42" id="aA"/><path fill="#333" d="M190-63c-7 42-38 67-86 67-59 0-84-38-90-98-12-110 154-137 174-36l-49 2c-2-19-15-32-35-32-30 0-35 28-38 64-6 74 65 87 74 30" id="aB"/><path fill="#333" d="M25 0v-261h50V0H25" id="aC"/><path fill="#333" d="M85 4C-2 5 27-109 22-190h50c7 57-23 150 33 157 60-5 35-97 40-157h50l1 190h-47c-2-12 1-28-3-38-12 25-28 42-61 42" id="aD"/><path fill="#333" d="M88-194c31-1 46 15 58 34l-1-101h50l1 261h-48c-2-10 0-23-3-31C134-8 116 4 84 4 32 4 16-41 15-95c0-56 19-97 73-99zm17 164c33 0 40-30 41-66 1-37-9-64-41-64s-38 30-39 65c0 43 13 65 39 65" id="aE"/><path fill="#333" d="M185-48c-13 30-37 53-82 52C43 2 14-33 14-96s30-98 90-98c62 0 83 45 84 108H66c0 31 8 55 39 56 18 0 30-7 34-22zm-45-69c5-46-57-63-70-21-2 6-4 13-4 21h74" id="aF"/><path fill="#333" d="M15-22v-40l146-57-146-57v-40l181 69v56" id="aG"/><g id="y"><use transform="matrix(0.04938271604938272,0,0,0.04938271604938272,0,0)" xlink:href="#ay"/><use transform="matrix(0.04938271604938272,0,0,0.04938271604938272,10.370370370370372,0)" xlink:href="#ay"/><use transform="matrix(0.04938271604938272,0,0,0.04938271604938272,20.740740740740744,0)" xlink:href="#az"/><use transform="matrix(0.04938271604938272,0,0,0.04938271604938272,25.679012345679016,0)" xlink:href="#aA"/><use transform="matrix(0.04938271604938272,0,0,0.04938271604938272,36.49382716049383,0)" xlink:href="#aB"/><use transform="matrix(0.04938271604938272,0,0,0.04938271604938272,46.370370370370374,0)" xlink:href="#aC"/><use transform="matrix(0.04938271604938272,0,0,0.04938271604938272,51.308641975308646,0)" xlink:href="#aD"/><use transform="matrix(0.04938271604938272,0,0,0.04938271604938272,62.12345679012346,0)" xlink:href="#aE"/><use transform="matrix(0.04938271604938272,0,0,0.04938271604938272,72.93827160493828,0)" xlink:href="#aF"/><use transform="matrix(0.04938271604938272,0,0,0.04938271604938272,82.81481481481482,0)" xlink:href="#aG"/><use transform="matrix(0.04938271604938272,0,0,0.04938271604938272,93.18518518518519,0)" xlink:href="#aG"/></g><path fill="#333" d="M144 0l-44-69L55 0H2l70-98-66-92h53l41 62 40-62h54l-67 91 71 99h-54" id="aH"/><path fill="#333" d="M115-3C79 11 28 4 28-45v-112H4v-33h27l15-45h31v45h36v33H77v99c-1 23 16 31 38 25v30" id="aI"/><g id="z"><use transform="matrix(0.04938271604938272,0,0,0.04938271604938272,0,0)" xlink:href="#ay"/><use transform="matrix(0.04938271604938272,0,0,0.04938271604938272,10.370370370370372,0)" xlink:href="#ay"/><use transform="matrix(0.04938271604938272,0,0,0.04938271604938272,20.740740740740744,0)" xlink:href="#aF"/><use transform="matrix(0.04938271604938272,0,0,0.04938271604938272,30.617283950617285,0)" xlink:href="#aH"/><use transform="matrix(0.04938271604938272,0,0,0.04938271604938272,40.49382716049384,0)" xlink:href="#aI"/><use transform="matrix(0.04938271604938272,0,0,0.04938271604938272,46.37037037037038,0)" xlink:href="#aF"/><use transform="matrix(0.04938271604938272,0,0,0.04938271604938272,56.24691358024693,0)" xlink:href="#aA"/><use transform="matrix(0.04938271604938272,0,0,0.04938271604938272,67.06172839506173,0)" xlink:href="#aE"/><use transform="matrix(0.04938271604938272,0,0,0.04938271604938272,77.87654320987654,0)" xlink:href="#aG"/><use transform="matrix(0.04938271604938272,0,0,0.04938271604938272,88.24691358024691,0)" xlink:href="#aG"/></g></defs></g></svg>